<?xml version="1.0" encoding="UTF-8"?>
<svg xmlns="http://www.w3.org/2000/svg" xmlns:xlink="http://www.w3.org/1999/xlink" width="540pt" height="299.999988pt" viewBox="0 0 540 299.999988" version="1.2">
<defs>
<clipPath id="clip1">
  <path d="M 0 156 L 241.945312 156 L 241.945312 300 L 0 300 Z M 0 156 "/>
</clipPath>
</defs>
<g id="surface1">
<rect x="0" y="0" width="540" height="299.999988" style="fill:rgb(100%,100%,100%);fill-opacity:1;stroke:none;"/>
<rect x="0" y="0" width="540" height="299.999988" style="fill:rgb(100%,100%,100%);fill-opacity:1;stroke:none;"/>
<rect x="0" y="0" width="540" height="299.999988" style="fill:rgb(100%,100%,100%);fill-opacity:1;stroke:none;"/>
<path style=" stroke:none;fill-rule:nonzero;fill:rgb(95.689392%,87.838745%,85.099792%);fill-opacity:1;" d="M 143.476562 84.464844 C 143.132812 101.5625 142.347656 132.859375 142.347656 132.859375 L 140.726562 134.628906 C 139.59375 134.628906 55.917969 133.992188 55.917969 133.992188 C 54.738281 129.078125 54.296875 100.433594 54.097656 84.464844 C 54.050781 78.078125 54 73.65625 54 73.65625 C 102.597656 72.917969 143.574219 73.65625 143.574219 73.65625 C 143.625 74.097656 143.574219 78.371094 143.476562 84.464844 Z M 143.476562 84.464844 "/>
<path style=" stroke:none;fill-rule:nonzero;fill:rgb(100%,52.159119%,79.60968%);fill-opacity:1;" d="M 143.476562 84.464844 L 54.097656 84.464844 C 54.050781 78.078125 54 73.65625 54 73.65625 C 102.597656 72.917969 143.574219 73.65625 143.574219 73.65625 C 143.625 74.097656 143.574219 78.371094 143.476562 84.464844 Z M 143.476562 84.464844 "/>
<path style=" stroke:none;fill-rule:nonzero;fill:rgb(15.689087%,10.978699%,13.328552%);fill-opacity:1;" d="M 141.21875 132.023438 C 141.511719 132.023438 141.511719 132.515625 141.21875 132.515625 C 135.617188 132.761719 129.964844 132.761719 124.3125 132.714844 C 111.292969 132.664062 98.273438 132.417969 85.25 132.125 C 76.652344 131.925781 68.054688 131.679688 59.503906 131.484375 C 59.207031 131.484375 59.207031 130.992188 59.503906 130.992188 C 63.1875 131.089844 66.875 131.191406 70.558594 131.289062 C 82.84375 131.582031 95.078125 131.878906 107.363281 132.074219 C 118.613281 132.222656 129.964844 132.46875 141.21875 132.023438 Z M 141.21875 133.15625 C 121.855469 133.84375 102.449219 132.761719 83.089844 133.203125 C 77.683594 133.300781 72.277344 133.546875 66.921875 133.992188 C 66.628906 134.039062 66.628906 134.53125 66.921875 134.480469 C 86.234375 132.957031 105.640625 133.792969 125.050781 133.84375 C 130.457031 133.84375 135.859375 133.792969 141.265625 133.597656 C 141.511719 133.644531 141.511719 133.15625 141.21875 133.15625 Z M 135.566406 118.464844 C 135.566406 118.515625 135.515625 118.5625 135.515625 118.613281 L 135.417969 125.734375 C 135.417969 125.882812 135.320312 125.980469 135.171875 125.980469 L 104.019531 125.980469 C 104.019531 125.980469 103.972656 125.980469 103.972656 125.980469 C 103.972656 125.980469 103.972656 125.980469 103.921875 125.980469 L 93.800781 125.980469 C 93.800781 125.980469 93.75 125.980469 93.75 125.980469 C 93.75 125.980469 93.75 125.980469 93.703125 125.980469 L 63.042969 125.980469 C 62.894531 125.980469 62.796875 125.882812 62.796875 125.734375 C 62.796875 125.441406 62.699219 122.542969 62.597656 118.5625 C 62.597656 118.515625 62.597656 118.515625 62.597656 118.464844 C 62.597656 118.464844 62.597656 118.414062 62.597656 118.414062 C 62.253906 107.605469 61.664062 88.640625 61.664062 88.394531 C 61.664062 88.347656 61.664062 88.25 61.714844 88.199219 C 61.765625 88.148438 61.8125 88.101562 61.910156 88.101562 L 93.949219 88.101562 C 93.949219 88.101562 93.949219 88.101562 93.996094 88.101562 C 93.996094 88.101562 93.996094 88.101562 94.046875 88.101562 L 104.167969 88.101562 C 104.167969 88.101562 104.167969 88.101562 104.21875 88.101562 C 104.21875 88.101562 104.21875 88.101562 104.265625 88.101562 L 135.714844 88.101562 C 135.761719 88.101562 135.859375 88.148438 135.910156 88.148438 C 135.960938 88.199219 135.960938 88.25 135.960938 88.347656 L 135.566406 118.269531 C 135.515625 118.367188 135.566406 118.414062 135.566406 118.464844 Z M 62.84375 111.09375 L 72.476562 111.09375 L 72.277344 104.316406 L 62.648438 104.316406 C 62.699219 106.574219 62.746094 108.835938 62.84375 111.09375 Z M 72.96875 111.09375 L 82.792969 111.09375 L 82.597656 104.316406 L 72.769531 104.316406 Z M 83.285156 111.09375 L 93.605469 111.09375 L 93.652344 104.316406 L 83.136719 104.316406 Z M 103.875 96.503906 L 94.144531 96.503906 L 94.09375 103.824219 L 103.824219 103.824219 Z M 104.316406 103.824219 L 114.289062 103.824219 L 114.488281 96.550781 L 104.363281 96.550781 Z M 94.09375 104.316406 L 94.046875 111.09375 L 103.773438 111.09375 L 103.824219 104.316406 Z M 93.652344 96.503906 L 82.84375 96.503906 L 83.039062 103.773438 L 93.605469 103.773438 Z M 83.285156 111.585938 L 83.480469 118.21875 L 93.503906 118.21875 L 93.554688 111.585938 Z M 93.996094 118.21875 L 103.726562 118.21875 L 103.773438 111.585938 L 94.046875 111.585938 Z M 104.21875 118.21875 L 113.847656 118.21875 L 114.042969 111.585938 L 104.21875 111.585938 Z M 114.09375 111.09375 L 114.289062 104.316406 L 104.316406 104.316406 L 104.265625 111.09375 Z M 114.585938 111.09375 L 124.265625 111.09375 L 124.460938 104.316406 L 114.78125 104.316406 Z M 124.757812 111.09375 L 135.125 111.09375 L 135.222656 104.316406 L 125.003906 104.316406 Z M 135.320312 96.503906 L 125.199219 96.503906 L 124.953125 103.824219 L 135.171875 103.824219 Z M 124.707031 96.503906 L 115.027344 96.503906 L 114.78125 103.824219 L 124.460938 103.824219 Z M 124.707031 96.011719 L 124.902344 88.59375 L 115.222656 88.59375 L 115.027344 96.011719 Z M 114.734375 88.59375 L 104.414062 88.59375 L 104.363281 96.011719 L 114.535156 96.011719 Z M 103.921875 88.59375 L 94.195312 88.59375 L 94.144531 96.011719 L 103.875 96.011719 Z M 93.703125 88.59375 L 82.597656 88.59375 L 82.792969 96.011719 L 93.605469 96.011719 Z M 82.105469 88.59375 L 72.277344 88.59375 L 72.476562 96.011719 L 82.304688 96.011719 Z M 72.523438 96.503906 L 72.722656 103.773438 L 82.546875 103.773438 L 82.351562 96.503906 Z M 72.035156 96.503906 L 62.402344 96.503906 C 62.453125 98.714844 62.550781 101.21875 62.648438 103.773438 L 72.277344 103.773438 Z M 63.042969 118.21875 L 72.671875 118.21875 L 72.476562 111.585938 L 62.84375 111.585938 C 62.941406 113.945312 62.992188 116.203125 63.042969 118.21875 Z M 73.164062 118.21875 L 82.992188 118.21875 L 82.792969 111.585938 L 72.96875 111.585938 Z M 73.164062 118.710938 L 73.359375 125.492188 L 83.1875 125.492188 L 82.992188 118.710938 Z M 83.679688 125.492188 L 93.457031 125.492188 L 93.503906 118.710938 L 83.480469 118.710938 Z M 93.949219 125.492188 L 103.675781 125.492188 L 103.726562 118.710938 L 93.996094 118.710938 Z M 104.167969 125.492188 L 113.652344 125.492188 L 113.847656 118.710938 L 104.21875 118.710938 Z M 114.144531 125.492188 L 123.824219 125.492188 L 124.019531 118.710938 L 114.339844 118.710938 Z M 124.070312 118.21875 L 124.265625 111.585938 L 114.585938 111.585938 L 114.386719 118.21875 Z M 124.558594 118.21875 L 135.027344 118.21875 L 135.125 111.585938 L 124.757812 111.585938 Z M 135.417969 88.59375 L 125.445312 88.59375 L 125.246094 96.011719 L 135.371094 96.011719 Z M 62.15625 88.59375 C 62.207031 89.476562 62.253906 92.328125 62.402344 96.011719 L 72.035156 96.011719 L 71.789062 88.59375 Z M 63.238281 125.492188 L 72.867188 125.492188 L 72.671875 118.710938 L 63.042969 118.710938 C 63.1875 122.148438 63.238281 124.703125 63.238281 125.492188 Z M 134.925781 125.492188 L 135.027344 118.710938 L 124.558594 118.710938 L 124.363281 125.492188 Z M 134.925781 125.492188 "/>
<g clip-path="url(#clip1)" clip-rule="nonzero">
<path style=" stroke:none;fill-rule:nonzero;fill:rgb(91.758728%,38.038635%,29.40979%);fill-opacity:1;" d="M 240.03125 266.253906 L 236.589844 271.414062 C 235.851562 272.492188 234.625 273.179688 233.296875 273.179688 L 233.148438 273.179688 L 216.933594 305.65625 C 216.492188 306.542969 215.609375 307.082031 214.625 307.082031 L 210.105469 307.082031 C 208.730469 307.082031 207.648438 306.050781 207.5 304.675781 L 207.109375 300.15625 C 207.058594 299.710938 207.15625 299.269531 207.304688 298.878906 L 218.605469 273.132812 L 25.355469 273.132812 L 36.753906 299.023438 C 36.902344 299.320312 36.949219 299.613281 36.902344 299.957031 L 36.457031 305.3125 C 36.359375 306.296875 35.574219 307.035156 34.589844 307.035156 L 28.941406 307.035156 C 28.203125 307.035156 27.566406 306.640625 27.222656 306 L 10.808594 273.132812 L 9.679688 273.132812 C 8.5 273.132812 7.371094 272.59375 6.632812 271.707031 L 2.359375 266.546875 C 0.6875 264.535156 0 261.882812 0.492188 259.328125 L 19.753906 159.488281 C 20.097656 157.621094 21.765625 156.296875 23.632812 156.296875 L 219.34375 156.296875 C 223.226562 156.296875 226.515625 159.144531 227.105469 162.976562 L 241.550781 259.425781 C 241.945312 261.78125 241.40625 264.238281 240.03125 266.253906 Z M 240.03125 266.253906 "/>
</g>
<path style=" stroke:none;fill-rule:nonzero;fill:rgb(15.689087%,10.978699%,13.328552%);fill-opacity:1;" d="M 232.511719 273.328125 C 229.761719 273.328125 227.007812 273.378906 224.257812 273.476562 C 224.304688 273.527344 224.304688 273.625 224.257812 273.671875 C 219.980469 283.5 215.414062 293.226562 210.546875 302.808594 C 210.398438 303.101562 209.957031 302.855469 210.105469 302.5625 C 214.96875 292.980469 219.492188 283.300781 223.765625 273.425781 C 222.832031 273.476562 221.898438 273.476562 220.914062 273.527344 C 220.621094 273.527344 220.621094 273.035156 220.914062 273.035156 C 224.75 272.886719 228.628906 272.835938 232.460938 272.835938 C 232.804688 272.835938 232.804688 273.328125 232.511719 273.328125 Z M 19.410156 273.328125 C 21.175781 273.328125 22.945312 273.378906 24.714844 273.378906 C 25.011719 273.378906 25.011719 272.886719 24.714844 272.886719 C 20.488281 272.835938 16.214844 272.738281 11.988281 272.886719 C 11.695312 272.886719 11.695312 273.378906 11.988281 273.378906 C 14.296875 273.28125 16.609375 273.28125 18.917969 273.328125 C 18.917969 273.378906 18.917969 273.476562 18.917969 273.527344 C 23.929688 283.746094 29.1875 293.867188 34.691406 303.839844 C 34.835938 304.132812 35.28125 303.890625 35.132812 303.59375 C 29.679688 293.621094 24.421875 283.546875 19.410156 273.328125 Z M 238.40625 262.914062 C 208.335938 262.960938 178.214844 262.960938 148.144531 263.011719 C 118.074219 263.058594 87.953125 263.011719 57.832031 263.058594 C 40.980469 263.058594 24.125 263.109375 7.320312 263.109375 C 7.027344 263.109375 7.027344 263.601562 7.320312 263.601562 C 37.390625 263.550781 67.511719 263.550781 97.585938 263.503906 C 127.65625 263.453125 157.777344 263.453125 187.847656 263.402344 C 204.699219 263.402344 221.554688 263.355469 238.359375 263.355469 C 238.703125 263.355469 238.703125 262.863281 238.40625 262.914062 Z M 238.40625 262.914062 "/>
<path style=" stroke:none;fill-rule:nonzero;fill:rgb(95.689392%,87.838745%,85.099792%);fill-opacity:1;" d="M 140.429688 201.496094 C 140.871094 201.597656 141.117188 202.039062 140.921875 202.429688 C 137.972656 209.015625 122.496094 250.777344 119.988281 257.558594 C 119.792969 258.097656 119.253906 258.394531 118.710938 258.292969 C 111.6875 257.214844 69.332031 254.117188 63.53125 253.726562 C 63.238281 253.726562 63.042969 253.382812 63.1875 253.085938 L 66.578125 246.648438 L 50.90625 248.859375 C 50.316406 248.960938 49.773438 248.566406 49.628906 247.976562 L 37.046875 192.507812 C 37 192.210938 37.195312 191.867188 37.492188 191.820312 C 43.828125 190.492188 83.335938 184.007812 88.394531 183.171875 C 88.691406 183.121094 88.984375 183.320312 89.035156 183.613281 L 91.441406 195.109375 C 119.84375 197.863281 136.597656 200.761719 140.429688 201.496094 Z M 140.429688 201.496094 "/>
<path style=" stroke:none;fill-rule:nonzero;fill:rgb(15.689087%,10.978699%,13.328552%);fill-opacity:1;" d="M 92.277344 195.308594 C 91.492188 195.257812 90.753906 195.160156 89.96875 195.011719 C 86.382812 203.757812 82.84375 212.503906 79.257812 221.25 C 79.15625 221.542969 78.667969 221.394531 78.765625 221.101562 C 82.351562 212.308594 85.9375 203.5625 89.476562 194.765625 C 89.527344 194.667969 89.574219 194.621094 89.671875 194.621094 C 89.722656 194.519531 89.820312 194.472656 89.917969 194.519531 C 90.65625 194.621094 91.441406 194.71875 92.179688 194.816406 C 92.621094 194.816406 92.621094 195.308594 92.277344 195.308594 Z M 92.277344 195.308594 "/>
<path style=" stroke:none;fill-rule:nonzero;fill:rgb(45.098877%,80.389404%,100%);fill-opacity:1;" d="M 96.257812 232.894531 L 96.257812 237.660156 L 50.167969 253.675781 L 47.121094 254.707031 C 46.925781 254.757812 46.679688 254.804688 46.484375 254.804688 C 46.039062 254.757812 45.597656 254.558594 45.351562 254.167969 L 16.558594 213.339844 C 16.558594 213.339844 15.332031 209.210938 16.558594 208.082031 C 16.707031 207.933594 17.542969 207.640625 18.820312 207.195312 C 28.300781 204.003906 63.976562 193.785156 63.976562 193.785156 Z M 96.257812 232.894531 "/>
<path style=" stroke:none;fill-rule:nonzero;fill:rgb(15.689087%,10.978699%,13.328552%);fill-opacity:1;" d="M 96.257812 236.136719 L 96.257812 237.660156 L 50.167969 253.675781 L 47.121094 254.707031 C 46.925781 254.757812 46.679688 254.804688 46.484375 254.804688 C 46.039062 254.757812 45.597656 254.558594 45.351562 254.167969 L 16.558594 213.339844 C 16.558594 213.339844 15.332031 209.210938 16.558594 208.082031 C 16.707031 207.933594 17.542969 207.640625 18.820312 207.195312 L 48.792969 249.746094 L 49.382812 251.414062 L 49.480469 251.316406 L 70.902344 244.390625 Z M 96.257812 236.136719 "/>
<path style=" stroke:none;fill-rule:nonzero;fill:rgb(95.689392%,87.838745%,85.099792%);fill-opacity:1;" d="M 96.257812 233.53125 L 96.257812 236.921875 L 49.824219 252.695312 L 47.660156 253.429688 L 47.464844 253.480469 C 46.972656 253.625 46.53125 253.28125 46.582031 252.792969 L 46.679688 251.710938 C 46.777344 250.925781 47.316406 250.238281 48.054688 249.941406 L 48.792969 249.695312 Z M 96.257812 233.53125 "/>
<path style=" stroke:none;fill-rule:nonzero;fill:rgb(15.689087%,10.978699%,13.328552%);fill-opacity:1;" d="M 65.351562 207.738281 C 63.777344 205.722656 62.058594 203.757812 60.242188 201.941406 C 60.191406 201.839844 60.09375 201.792969 59.996094 201.839844 C 50.804688 205.035156 41.570312 208.179688 32.378906 211.273438 C 32.28125 211.324219 32.234375 211.375 32.234375 211.421875 C 32.085938 211.472656 31.988281 211.617188 32.085938 211.765625 C 33.65625 213.929688 35.378906 216.039062 37.148438 218.054688 C 37.246094 218.152344 37.34375 218.152344 37.441406 218.105469 C 37.492188 218.152344 37.589844 218.152344 37.636719 218.152344 C 46.726562 214.8125 55.917969 211.519531 65.054688 208.328125 C 65.203125 208.277344 65.203125 208.179688 65.203125 208.082031 C 65.351562 208.03125 65.5 207.886719 65.351562 207.738281 Z M 37.492188 217.664062 C 37.492188 217.664062 37.441406 217.664062 37.492188 217.664062 C 35.722656 215.746094 34.148438 213.78125 32.625 211.667969 C 41.765625 208.621094 50.90625 205.476562 59.996094 202.332031 C 61.765625 204.050781 63.386719 205.917969 64.910156 207.835938 C 55.71875 211.03125 46.582031 214.320312 37.492188 217.664062 Z M 96.550781 233.875 C 96.550781 234.710938 96.503906 235.496094 96.503906 236.332031 C 96.503906 236.628906 96.011719 236.628906 96.011719 236.332031 C 96.011719 236.085938 96.011719 235.839844 96.011719 235.644531 C 81.859375 240.753906 67.660156 245.714844 53.507812 250.925781 C 53.214844 251.023438 53.066406 250.582031 53.363281 250.433594 C 67.511719 245.226562 81.761719 240.214844 95.960938 235.105469 C 95.960938 235.105469 95.960938 235.105469 96.011719 235.105469 C 96.011719 235.007812 96.011719 234.90625 96.011719 234.808594 C 80.730469 240.015625 65.398438 245.175781 50.265625 250.679688 C 49.972656 250.777344 49.824219 250.335938 50.117188 250.1875 C 65.351562 244.636719 80.679688 239.476562 96.011719 234.269531 C 96.011719 234.121094 96.011719 234.023438 96.011719 233.875 C 96.0625 233.582031 96.550781 233.582031 96.550781 233.875 Z M 96.550781 233.875 "/>
<path style=" stroke:none;fill-rule:nonzero;fill:rgb(100%,52.159119%,79.60968%);fill-opacity:1;" d="M 126.082031 225.472656 L 127.410156 226.164062 C 128.785156 226.851562 129.523438 228.421875 129.179688 229.945312 L 128.980469 230.730469 C 128.6875 231.960938 127.804688 232.894531 126.625 233.238281 L 116.109375 236.285156 C 115.027344 236.578125 113.847656 236.332031 113.011719 235.644531 L 110.851562 233.875 C 110.066406 233.238281 109.621094 232.253906 109.621094 231.222656 L 109.621094 231.125 C 109.621094 229.550781 110.703125 228.175781 112.277344 227.785156 L 123.824219 225.128906 C 124.511719 224.984375 125.347656 225.082031 126.082031 225.472656 Z M 126.082031 225.472656 "/>
<path style=" stroke:none;fill-rule:nonzero;fill:rgb(15.689087%,10.978699%,13.328552%);fill-opacity:1;" d="M 69.773438 169.121094 C 69.773438 178.847656 62.355469 186.167969 50.460938 186.167969 C 38.570312 186.167969 28.15625 176.585938 28.15625 166.859375 C 28.15625 158.113281 35.378906 152.660156 45.5 151.628906 C 45.695312 135.5625 40.046875 123.179688 35.476562 113.109375 C 35.132812 112.324219 34.738281 111.535156 34.394531 110.75 C 30.855469 102.9375 31.101562 95.125 35.035156 90.804688 C 37.492188 88.101562 41.125 87.265625 44.910156 88.59375 C 53.707031 91.636719 57.882812 104.117188 58.324219 105.542969 C 58.816406 107.113281 57.929688 108.738281 56.40625 109.226562 C 54.835938 109.71875 53.214844 108.835938 52.722656 107.3125 C 51.738281 104.265625 48.152344 95.914062 43.042969 94.144531 C 40.734375 93.359375 39.703125 94.4375 39.40625 94.78125 C 37.589844 96.796875 36.902344 101.90625 39.800781 108.292969 C 40.144531 109.082031 40.488281 109.816406 40.882812 110.601562 C 45.695312 121.214844 51.640625 134.234375 51.445312 151.480469 C 62.109375 152.511719 69.773438 159.980469 69.773438 169.121094 Z M 69.773438 169.121094 "/>
<path style=" stroke:none;fill-rule:nonzero;fill:rgb(45.098877%,80.389404%,100%);fill-opacity:1;" d="M 65.253906 103.234375 C 63.140625 102.890625 61.027344 102.792969 58.863281 102.988281 C 53.117188 103.480469 49.578125 107.3125 47.5625 112.570312 C 47.023438 111.339844 46.679688 109.964844 46.679688 108.492188 C 46.679688 102.9375 51.152344 98.46875 56.703125 98.46875 C 60.339844 98.46875 63.484375 100.382812 65.253906 103.234375 Z M 65.253906 103.234375 "/>
<path style=" stroke:none;fill-rule:nonzero;fill:rgb(100%,52.159119%,79.60968%);fill-opacity:1;" d="M 94.09375 125.34375 C 92.671875 130.453125 88.050781 139.984375 76.503906 146.421875 C 66.285156 152.121094 56.753906 150.890625 52.230469 150.253906 C 50.21875 149.957031 48.546875 148.582031 47.957031 146.617188 C 45.5 138.855469 43.632812 122.835938 47.613281 112.519531 C 49.628906 107.261719 53.164062 103.480469 58.914062 102.9375 C 61.074219 102.742188 63.238281 102.839844 65.300781 103.183594 C 77.832031 105.25 88.738281 115.761719 92.917969 120.28125 C 94.144531 121.707031 94.585938 123.574219 94.09375 125.34375 Z M 94.09375 125.34375 "/>
<path style=" stroke:none;fill-rule:nonzero;fill:rgb(95.689392%,87.838745%,85.099792%);fill-opacity:1;" d="M 78.519531 132.222656 C 78.519531 136.789062 74.933594 140.523438 70.511719 140.523438 C 66.480469 140.523438 63.140625 137.378906 62.597656 133.351562 C 66.433594 130.601562 73.65625 126.769531 75.570312 125.785156 C 77.390625 127.308594 78.519531 129.667969 78.519531 132.222656 Z M 78.519531 132.222656 "/>
<path style=" stroke:none;fill-rule:nonzero;fill:rgb(15.689087%,10.978699%,13.328552%);fill-opacity:1;" d="M 92.964844 122.101562 C 93.261719 122.199219 93.160156 122.640625 92.816406 122.589844 C 90.410156 121.953125 87.855469 122.394531 85.496094 122.835938 C 83.480469 123.230469 81.515625 123.769531 79.601562 124.410156 C 75.621094 125.785156 71.835938 127.75 68.25 129.960938 C 64.664062 132.171875 61.175781 134.679688 58.03125 137.480469 C 56.605469 138.757812 55.277344 140.082031 54.050781 141.605469 C 52.625 143.375 50.804688 145.632812 50.804688 148.042969 C 50.804688 148.335938 50.316406 148.335938 50.316406 148.042969 C 50.265625 146.125 51.347656 144.457031 52.429688 142.933594 C 53.460938 141.457031 54.640625 140.132812 55.867188 138.855469 C 60.730469 133.941406 66.824219 129.863281 72.96875 126.71875 C 76.0625 125.148438 79.304688 123.871094 82.648438 122.984375 C 85.890625 122.101562 89.671875 121.265625 92.964844 122.101562 Z M 92.964844 122.101562 "/>
<path style=" stroke:none;fill-rule:nonzero;fill:rgb(95.689392%,87.838745%,85.099792%);fill-opacity:1;" d="M 45.105469 156.050781 C 44.960938 155.757812 45.402344 155.511719 45.550781 155.804688 C 46.335938 157.574219 48.59375 158.359375 50.117188 156.984375 C 51.496094 155.757812 51.101562 153.890625 51.050781 152.265625 C 51.050781 151.972656 51.542969 151.972656 51.542969 152.265625 C 51.640625 154.429688 51.9375 156.835938 49.578125 157.917969 C 47.808594 158.703125 45.84375 157.722656 45.105469 156.050781 Z M 55.769531 153.347656 C 58.324219 158.898438 52.820312 163.765625 47.5625 163.863281 C 42.355469 163.960938 37.097656 159.539062 38.914062 153.988281 C 39.015625 153.691406 38.523438 153.546875 38.425781 153.839844 C 36.507812 159.832031 42.304688 164.648438 47.957031 164.304688 C 53.507812 164.011719 58.863281 158.800781 56.210938 153.101562 C 56.0625 152.808594 55.621094 153.054688 55.769531 153.347656 Z M 55.769531 153.347656 "/>
<path style=" stroke:none;fill-rule:nonzero;fill:rgb(95.689392%,87.838745%,85.099792%);fill-opacity:1;" d="M 75.03125 109.671875 C 74.785156 109.523438 75.03125 109.082031 75.277344 109.226562 C 77.289062 110.503906 79.207031 111.929688 80.976562 113.503906 C 81.222656 113.699219 80.878906 114.042969 80.632812 113.847656 C 78.914062 112.324219 77.046875 110.898438 75.03125 109.671875 Z M 75.03125 109.671875 "/>
<path style=" stroke:none;fill-rule:nonzero;fill:rgb(15.689087%,10.978699%,13.328552%);fill-opacity:1;" d="M 210.890625 198.253906 L 175.414062 225.03125 C 174.234375 225.917969 172.613281 226.015625 171.335938 225.179688 L 105.839844 183.121094 L 104.5625 180.371094 C 104.265625 179.730469 104.5625 178.945312 105.199219 178.699219 L 142.984375 161.996094 L 146.328125 118.660156 C 146.425781 117.382812 147.703125 116.546875 148.882812 116.992188 L 219 140.574219 C 220.226562 140.96875 220.964844 142.195312 220.769531 143.472656 L 212.414062 193.734375 L 212.414062 195.207031 C 212.414062 196.4375 211.824219 197.566406 210.890625 198.253906 Z M 210.890625 198.253906 "/>
<path style=" stroke:none;fill-rule:nonzero;fill:rgb(45.098877%,80.389404%,100%);fill-opacity:1;" d="M 150.355469 123.722656 L 213.691406 145.929688 L 206.667969 185.578125 L 147.308594 158.605469 Z M 150.355469 123.722656 "/>
<path style=" stroke:none;fill-rule:nonzero;fill:rgb(95.689392%,87.838745%,85.099792%);fill-opacity:1;" d="M 145.34375 162.390625 C 150.0625 164.746094 154.777344 167.054688 159.496094 169.414062 C 176.003906 177.519531 192.5625 185.433594 209.222656 193.144531 C 209.515625 193.292969 209.269531 193.6875 208.976562 193.585938 C 204.210938 191.375 199.441406 189.164062 194.675781 186.90625 C 178.070312 179.09375 161.511719 171.035156 145.097656 162.832031 C 144.804688 162.683594 145.050781 162.242188 145.34375 162.390625 Z M 172.613281 220.5625 C 155.417969 210.292969 138.367188 199.828125 121.414062 189.164062 C 116.601562 186.121094 111.734375 183.074219 106.921875 180.027344 C 106.675781 179.878906 106.429688 180.273438 106.675781 180.46875 C 123.578125 191.230469 140.578125 201.792969 157.675781 212.160156 C 162.542969 215.105469 167.457031 218.054688 172.367188 221.003906 C 172.613281 221.152344 172.859375 220.707031 172.613281 220.5625 Z M 209.121094 194.277344 C 197.085938 202.972656 185.144531 211.667969 173.15625 220.414062 C 172.910156 220.609375 173.15625 221.003906 173.402344 220.855469 C 185.339844 212.109375 197.332031 203.363281 209.367188 194.71875 C 209.613281 194.519531 209.367188 194.128906 209.121094 194.277344 Z M 121.613281 175.261719 C 127.949219 172.019531 134.335938 168.875 140.726562 165.777344 C 141.019531 165.632812 141.265625 166.074219 140.972656 166.222656 C 139.988281 166.710938 138.957031 167.203125 137.972656 167.695312 C 137.972656 167.695312 137.972656 167.695312 138.023438 167.695312 C 139.742188 168.628906 141.460938 169.5625 143.183594 170.496094 C 144.164062 169.953125 145.148438 169.464844 146.128906 168.921875 C 144.65625 168.136719 143.183594 167.351562 141.707031 166.566406 C 141.414062 166.417969 141.660156 165.976562 141.953125 166.121094 C 146.082031 168.332031 150.257812 170.542969 154.386719 172.753906 C 158.070312 174.722656 161.753906 176.636719 165.441406 178.554688 C 165.488281 178.554688 165.488281 178.554688 165.539062 178.601562 C 169.371094 180.617188 173.203125 182.582031 177.035156 184.546875 C 177.085938 184.546875 177.085938 184.546875 177.136719 184.597656 C 182.292969 187.25 187.453125 189.902344 192.613281 192.507812 C 192.761719 192.457031 192.859375 192.554688 192.90625 192.652344 C 194.875 193.636719 196.789062 194.621094 198.753906 195.652344 C 199.050781 195.796875 198.804688 196.242188 198.507812 196.09375 C 196.542969 195.109375 194.578125 194.128906 192.664062 193.097656 C 191.628906 193.832031 190.597656 194.570312 189.566406 195.308594 C 191.039062 196.09375 192.5625 196.878906 194.039062 197.714844 C 194.332031 197.863281 194.085938 198.304688 193.792969 198.15625 C 192.21875 197.320312 190.648438 196.488281 189.125 195.652344 C 187.652344 196.730469 186.175781 197.8125 184.75 198.894531 C 186.519531 199.875 188.289062 200.808594 190.105469 201.792969 C 190.402344 201.941406 190.15625 202.382812 189.863281 202.234375 C 187.996094 201.253906 186.175781 200.21875 184.359375 199.238281 C 183.179688 200.121094 182 201.054688 180.769531 201.988281 C 182.34375 202.875 183.964844 203.707031 185.539062 204.59375 C 185.832031 204.742188 185.585938 205.183594 185.292969 205.035156 C 183.621094 204.152344 182 203.265625 180.328125 202.332031 C 178.804688 203.511719 177.28125 204.742188 175.757812 205.96875 C 177.382812 206.902344 179.003906 207.785156 180.625 208.71875 C 186.667969 204.691406 192.5625 200.515625 198.558594 196.386719 C 198.804688 196.191406 199.050781 196.632812 198.804688 196.832031 C 192.808594 201.007812 186.816406 205.183594 180.769531 209.261719 C 180.671875 209.308594 180.574219 209.308594 180.527344 209.261719 C 178.804688 208.277344 177.085938 207.296875 175.367188 206.3125 C 175.167969 206.410156 174.972656 206.261719 174.972656 206.117188 C 172.515625 204.742188 170.109375 203.316406 167.652344 201.941406 C 166.816406 201.449219 165.933594 200.957031 165.046875 200.464844 C 165 200.464844 164.949219 200.417969 164.902344 200.367188 C 160.96875 198.15625 157.085938 195.945312 153.15625 193.734375 C 153.058594 193.734375 152.960938 193.6875 152.960938 193.585938 C 142.789062 187.839844 132.617188 182.089844 122.398438 176.390625 C 122.101562 176.242188 122.347656 175.800781 122.644531 175.949219 C 124.3125 176.882812 125.984375 177.816406 127.65625 178.75 C 127.65625 178.75 127.65625 178.75 127.703125 178.75 C 129.277344 177.964844 130.847656 177.128906 132.421875 176.34375 C 130.554688 175.308594 128.636719 174.277344 126.769531 173.296875 C 126.769531 173.296875 126.722656 173.296875 126.722656 173.246094 C 125.101562 174.03125 123.480469 174.867188 121.90625 175.65625 C 121.613281 175.851562 121.367188 175.410156 121.613281 175.261719 Z M 127.214844 173 C 129.179688 174.082031 131.144531 175.113281 133.109375 176.195312 C 134.582031 175.308594 136.105469 174.476562 137.628906 173.589844 C 135.859375 172.609375 134.042969 171.578125 132.273438 170.59375 C 132.226562 170.59375 132.226562 170.542969 132.226562 170.542969 C 130.503906 171.378906 128.882812 172.214844 127.214844 173 Z M 159.003906 175.800781 C 158.121094 176.441406 157.234375 177.078125 156.351562 177.667969 C 158.316406 178.75 160.28125 179.78125 162.246094 180.863281 C 163.132812 180.222656 164.066406 179.585938 164.949219 178.945312 C 162.984375 177.867188 161.019531 176.832031 159.003906 175.800781 Z M 165.488281 179.191406 C 164.605469 179.832031 163.671875 180.46875 162.789062 181.109375 C 164.605469 182.089844 166.375 183.023438 168.191406 184.007812 C 169.125 183.367188 170.058594 182.679688 170.992188 182.042969 C 169.125 181.109375 167.308594 180.125 165.488281 179.191406 Z M 171.484375 182.289062 C 170.550781 182.925781 169.566406 183.566406 168.632812 184.253906 C 170.355469 185.1875 172.074219 186.070312 173.792969 187.003906 C 174.726562 186.316406 175.660156 185.628906 176.546875 184.941406 C 174.875 184.054688 173.15625 183.171875 171.484375 182.289062 Z M 177.035156 185.1875 C 176.101562 185.875 175.167969 186.5625 174.234375 187.25 C 175.957031 188.183594 177.726562 189.117188 179.445312 190 C 180.476562 189.3125 181.460938 188.625 182.492188 187.988281 C 180.722656 187.054688 178.902344 186.121094 177.035156 185.1875 Z M 165.097656 199.925781 C 166.769531 198.894531 168.390625 197.863281 169.960938 196.730469 C 167.898438 195.601562 165.835938 194.472656 163.769531 193.390625 C 163.769531 193.488281 163.769531 193.585938 163.671875 193.636719 C 162.296875 194.621094 160.921875 195.601562 159.542969 196.632812 C 159.496094 196.683594 159.398438 196.683594 159.347656 196.683594 C 161.265625 197.714844 163.179688 198.84375 165.097656 199.925781 Z M 153.992188 187.003906 C 155.074219 186.167969 156.203125 185.332031 157.285156 184.5 C 155.320312 183.417969 153.304688 182.335938 151.339844 181.207031 C 150.0625 182.140625 148.785156 183.023438 147.507812 184.007812 C 153.402344 187.199219 159.300781 190.394531 165.195312 193.585938 C 165.195312 193.488281 165.195312 193.390625 165.292969 193.34375 C 166.421875 192.507812 167.554688 191.671875 168.683594 190.785156 C 166.964844 189.855469 165.246094 188.921875 163.574219 187.988281 C 162.445312 188.871094 161.3125 189.753906 160.183594 190.640625 C 159.9375 190.835938 159.59375 190.492188 159.839844 190.296875 C 160.921875 189.410156 162 188.574219 163.082031 187.742188 C 161.3125 186.757812 159.496094 185.777344 157.726562 184.792969 C 156.546875 185.675781 155.367188 186.5625 154.1875 187.445312 C 153.992188 187.644531 153.746094 187.199219 153.992188 187.003906 Z M 167.75 184.300781 C 165.933594 183.320312 164.164062 182.386719 162.34375 181.402344 C 160.96875 182.386719 159.59375 183.417969 158.21875 184.449219 C 159.988281 185.433594 161.804688 186.414062 163.574219 187.398438 C 164.949219 186.363281 166.324219 185.332031 167.75 184.300781 Z M 164.015625 187.644531 C 165.734375 188.574219 167.457031 189.507812 169.125 190.441406 C 170.550781 189.410156 171.925781 188.332031 173.351562 187.296875 C 171.632812 186.363281 169.914062 185.480469 168.191406 184.546875 C 166.816406 185.578125 165.390625 186.609375 164.015625 187.644531 Z M 170.453125 196.386719 C 171.730469 195.503906 172.957031 194.621094 174.1875 193.734375 C 172.515625 192.851562 170.847656 191.917969 169.175781 191.03125 C 167.945312 191.917969 166.769531 192.851562 165.539062 193.734375 C 165.539062 193.734375 165.539062 193.734375 165.488281 193.734375 C 167.160156 194.621094 168.78125 195.503906 170.453125 196.386719 Z M 170.894531 196.683594 C 172.023438 197.320312 173.203125 197.910156 174.335938 198.550781 C 175.613281 197.664062 176.890625 196.832031 178.167969 195.945312 C 177.773438 195.75 177.382812 195.503906 176.988281 195.308594 C 176.203125 194.863281 175.414062 194.421875 174.628906 194.03125 C 173.402344 194.914062 172.171875 195.796875 170.894531 196.683594 Z M 178.660156 195.652344 C 180.183594 194.621094 181.703125 193.585938 183.226562 192.605469 C 182.589844 192.261719 182 191.964844 181.359375 191.621094 C 180.722656 191.277344 180.082031 190.933594 179.492188 190.640625 C 178.019531 191.671875 176.546875 192.703125 175.070312 193.734375 C 176.300781 194.324219 177.480469 195.011719 178.660156 195.652344 Z M 179.003906 190.34375 C 177.28125 189.410156 175.5625 188.527344 173.84375 187.59375 C 172.417969 188.625 171.042969 189.707031 169.617188 190.738281 C 171.289062 191.671875 172.957031 192.554688 174.628906 193.441406 C 176.054688 192.410156 177.527344 191.328125 179.003906 190.34375 Z M 155.910156 177.964844 C 154.53125 178.945312 153.15625 179.929688 151.78125 180.910156 C 153.746094 181.992188 155.710938 183.074219 157.726562 184.203125 C 159.101562 183.171875 160.476562 182.1875 161.855469 181.15625 C 159.886719 180.125 157.875 179.042969 155.910156 177.964844 Z M 155.464844 177.71875 C 153.597656 176.6875 151.730469 175.703125 149.816406 174.671875 C 148.292969 175.554688 146.820312 176.441406 145.296875 177.324219 C 147.308594 178.453125 149.324219 179.535156 151.339844 180.664062 C 152.664062 179.683594 154.042969 178.699219 155.464844 177.71875 Z M 149.324219 174.425781 C 147.308594 173.34375 145.246094 172.214844 143.230469 171.085938 C 141.707031 171.921875 140.183594 172.753906 138.660156 173.589844 C 140.726562 174.722656 142.738281 175.898438 144.804688 177.03125 C 146.277344 176.144531 147.800781 175.308594 149.324219 174.425781 Z M 138.121094 173.886719 C 136.597656 174.722656 135.125 175.605469 133.601562 176.488281 C 135.714844 177.621094 137.777344 178.75 139.890625 179.878906 C 142.25 181.15625 144.65625 182.433594 147.015625 183.761719 C 148.292969 182.828125 149.570312 181.894531 150.847656 180.960938 C 148.832031 179.832031 146.769531 178.699219 144.753906 177.570312 C 143.378906 178.355469 141.953125 179.191406 140.578125 179.976562 C 140.285156 180.125 140.039062 179.730469 140.332031 179.535156 C 141.660156 178.796875 142.9375 178.011719 144.261719 177.277344 C 142.25 176.195312 140.183594 175.015625 138.121094 173.886719 Z M 135.566406 183.21875 C 141.460938 186.511719 147.308594 189.855469 153.15625 193.144531 C 154.632812 192.164062 156.054688 191.230469 157.53125 190.246094 C 157.777344 190.050781 158.019531 190.492188 157.777344 190.6875 C 156.398438 191.621094 155.023438 192.507812 153.648438 193.441406 C 155.515625 194.472656 157.382812 195.554688 159.25 196.585938 C 159.152344 196.488281 159.101562 196.289062 159.25 196.140625 C 160.625 195.109375 162 194.128906 163.378906 193.144531 C 155.566406 188.921875 147.800781 184.695312 139.988281 180.46875 C 139.988281 180.46875 139.9375 180.519531 139.9375 180.519531 C 138.417969 181.304688 136.894531 182.140625 135.371094 182.925781 C 135.074219 183.074219 134.828125 182.632812 135.125 182.484375 C 136.597656 181.699219 138.023438 180.960938 139.496094 180.175781 C 137.285156 178.996094 135.074219 177.765625 132.863281 176.585938 C 132.863281 176.585938 132.863281 176.585938 132.816406 176.636719 C 131.242188 177.421875 129.667969 178.257812 128.097656 179.042969 C 130.652344 180.46875 133.109375 181.84375 135.566406 183.21875 Z M 169.222656 202.285156 C 169.175781 202.1875 169.222656 202.085938 169.324219 201.988281 C 170.847656 200.957031 172.367188 199.875 173.890625 198.84375 C 173.402344 198.550781 172.910156 198.304688 172.367188 198.007812 C 171.730469 197.664062 171.089844 197.320312 170.453125 196.976562 C 168.832031 198.109375 167.257812 199.1875 165.589844 200.171875 C 166.816406 200.859375 168.046875 201.597656 169.222656 202.285156 Z M 179.886719 202.085938 C 178.070312 201.105469 176.203125 200.121094 174.382812 199.089844 C 172.761719 200.171875 171.191406 201.300781 169.566406 202.382812 C 169.566406 202.382812 169.519531 202.382812 169.519531 202.382812 C 171.433594 203.464844 173.351562 204.59375 175.316406 205.675781 C 176.839844 204.496094 178.363281 203.265625 179.886719 202.085938 Z M 183.867188 199.042969 C 182.148438 198.109375 180.425781 197.175781 178.660156 196.242188 C 177.382812 197.125 176.101562 197.960938 174.824219 198.84375 C 176.644531 199.828125 178.460938 200.808594 180.28125 201.792969 C 181.507812 200.859375 182.6875 199.925781 183.867188 199.042969 Z M 188.683594 195.453125 C 187.0625 194.570312 185.390625 193.6875 183.769531 192.851562 C 182.246094 193.882812 180.722656 194.863281 179.148438 195.898438 C 180.871094 196.832031 182.589844 197.765625 184.308594 198.699219 C 185.734375 197.617188 187.207031 196.535156 188.683594 195.453125 Z M 192.21875 192.949219 C 190.597656 192.113281 188.976562 191.328125 187.355469 190.492188 C 187.355469 190.492188 187.355469 190.542969 187.304688 190.542969 C 186.273438 191.230469 185.242188 191.917969 184.210938 192.554688 C 185.832031 193.441406 187.503906 194.277344 189.125 195.160156 C 190.15625 194.421875 191.1875 193.6875 192.21875 192.949219 Z M 185.980469 189.804688 C 184.996094 189.3125 184.015625 188.773438 183.03125 188.28125 C 182 188.921875 180.96875 189.609375 179.9375 190.296875 C 181.164062 190.984375 182.441406 191.621094 183.671875 192.308594 C 184.703125 191.621094 185.785156 190.933594 186.816406 190.246094 C 186.570312 190.050781 186.273438 189.953125 185.980469 189.804688 Z M 153.207031 172.707031 C 152.222656 173.246094 151.289062 173.835938 150.308594 174.375 C 150.355469 174.375 150.355469 174.425781 150.40625 174.425781 C 152.222656 175.410156 154.089844 176.390625 155.910156 177.375 C 156.792969 176.734375 157.675781 176.144531 158.5625 175.507812 C 156.742188 174.574219 154.976562 173.640625 153.207031 172.707031 Z M 143.722656 170.789062 C 145.738281 171.871094 147.753906 173 149.816406 174.082031 C 150.796875 173.542969 151.730469 172.953125 152.714844 172.410156 C 150.699219 171.332031 148.734375 170.300781 146.71875 169.21875 C 145.6875 169.757812 144.707031 170.300781 143.722656 170.789062 Z M 137.679688 167.84375 C 136.007812 168.675781 134.335938 169.464844 132.714844 170.300781 C 134.535156 171.332031 136.351562 172.3125 138.171875 173.34375 C 139.695312 172.511719 141.21875 171.675781 142.738281 170.839844 C 141.117188 169.953125 139.449219 169.070312 137.828125 168.136719 C 137.679688 168.089844 137.628906 167.941406 137.679688 167.84375 Z M 148.980469 194.421875 C 148.980469 194.519531 148.929688 194.570312 148.882812 194.621094 C 147.0625 195.898438 145.195312 197.175781 143.378906 198.453125 C 143.328125 198.597656 143.183594 198.699219 143.035156 198.597656 C 138.023438 195.207031 132.960938 191.964844 127.800781 188.820312 C 127.65625 188.722656 127.65625 188.574219 127.753906 188.476562 C 127.605469 188.378906 127.558594 188.183594 127.753906 188.085938 C 129.769531 187.199219 131.78125 186.363281 133.75 185.480469 C 133.847656 185.429688 133.992188 185.480469 134.042969 185.53125 C 134.09375 185.433594 134.238281 185.382812 134.335938 185.433594 C 139.203125 188.28125 144.019531 191.179688 148.882812 194.03125 C 149.03125 194.128906 149.03125 194.277344 148.980469 194.421875 Z M 128.148438 188.429688 C 133.207031 191.523438 138.21875 194.71875 143.132812 198.058594 C 144.902344 196.832031 146.671875 195.601562 148.441406 194.324219 C 143.671875 191.523438 138.90625 188.675781 134.140625 185.875 C 134.140625 185.875 134.09375 185.824219 134.09375 185.824219 C 134.09375 185.824219 134.042969 185.875 134.042969 185.875 C 132.027344 186.757812 130.0625 187.59375 128.148438 188.429688 Z M 151.832031 132.367188 C 151.929688 130.796875 152.074219 129.175781 152.273438 127.601562 C 152.320312 127.308594 151.832031 127.308594 151.78125 127.601562 C 151.585938 129.175781 151.4375 130.796875 151.339844 132.367188 C 151.289062 132.714844 151.78125 132.714844 151.832031 132.367188 Z M 151.832031 132.367188 "/>
<path style=" stroke:none;fill-rule:nonzero;fill:rgb(45.098877%,80.389404%,100%);fill-opacity:1;" d="M 211.628906 231.46875 C 211.285156 228.816406 210.15625 226.851562 208.335938 225.671875 C 206.125 224.195312 203.472656 224.296875 202 224.492188 C 201.898438 221.640625 200.277344 219.039062 197.625 217.808594 C 195.070312 216.628906 191.140625 215.695312 185.046875 215.695312 C 178.953125 215.695312 175.023438 216.628906 172.46875 217.808594 C 169.46875 219.234375 167.699219 222.429688 168.144531 225.71875 C 168.878906 231.371094 170.5 243.457031 171.191406 244.339844 C 172.125 245.519531 177.429688 249.792969 185.539062 249.351562 C 193.644531 248.910156 199.097656 245.273438 199.296875 244.488281 C 199.34375 244.292969 199.542969 242.964844 199.785156 241.050781 C 202.6875 240.65625 207.601562 239.574219 210.105469 236.675781 C 211.433594 235.203125 211.921875 233.433594 211.628906 231.46875 Z M 208.289062 235.105469 C 206.519531 237.21875 202.785156 238.148438 200.230469 238.542969 C 200.71875 234.859375 201.359375 230.289062 201.800781 226.996094 C 202.488281 226.851562 205.09375 226.40625 207.011719 227.683594 C 208.1875 228.472656 208.976562 229.847656 209.222656 231.8125 C 209.367188 233.089844 209.074219 234.171875 208.289062 235.105469 Z M 208.289062 235.105469 "/>
<path style=" stroke:none;fill-rule:nonzero;fill:rgb(15.689087%,10.978699%,13.328552%);fill-opacity:1;" d="M 198.117188 223.460938 C 198.117188 226.898438 192.171875 229.699219 184.898438 229.699219 C 177.625 229.699219 171.679688 226.898438 171.679688 223.460938 C 171.679688 220.019531 177.625 217.21875 184.898438 217.21875 C 192.171875 217.21875 198.117188 220.019531 198.117188 223.460938 Z M 201.753906 224.738281 C 201.652344 225.328125 201.554688 225.964844 201.457031 226.554688 C 201.410156 226.851562 201.898438 226.996094 201.949219 226.703125 C 202.046875 226.113281 202.144531 225.472656 202.242188 224.882812 C 202.292969 224.539062 201.800781 224.394531 201.753906 224.738281 Z M 199.984375 239.035156 C 199.886719 239.574219 199.785156 240.164062 199.6875 240.707031 C 199.640625 241 200.132812 241.148438 200.179688 240.851562 C 200.277344 240.3125 200.375 239.722656 200.476562 239.183594 C 200.476562 238.839844 200.03125 238.691406 199.984375 239.035156 Z M 199.984375 239.035156 "/>
<path style=" stroke:none;fill-rule:nonzero;fill:rgb(95.689392%,87.838745%,85.099792%);fill-opacity:1;" d="M 170.945312 229.304688 C 170.894531 229.011719 171.386719 229.011719 171.433594 229.304688 C 171.632812 231.371094 171.878906 233.484375 172.171875 235.546875 C 172.222656 235.839844 171.730469 235.839844 171.679688 235.546875 C 171.386719 233.484375 171.140625 231.417969 170.945312 229.304688 Z M 170.945312 229.304688 "/>
<path style=" stroke:none;fill-rule:nonzero;fill:rgb(15.689087%,10.978699%,13.328552%);fill-opacity:1;" d="M 142.789062 240.359375 L 134.730469 240.359375 L 97.140625 247.042969 C 97.4375 247.730469 97.78125 248.910156 97.632812 250.433594 L 135.320312 243.75 L 142.886719 240.804688 C 143.132812 240.707031 143.035156 240.359375 142.789062 240.359375 Z M 126.769531 228.71875 C 125.738281 229.847656 123.480469 230.09375 122.003906 230.4375 C 120.382812 230.828125 118.8125 231.222656 117.1875 231.617188 C 116.894531 231.714844 116.992188 232.15625 117.335938 232.105469 C 119.253906 231.617188 121.167969 231.171875 123.085938 230.683594 C 124.414062 230.339844 126.179688 230.09375 127.113281 229.0625 C 127.359375 228.816406 127.015625 228.472656 126.769531 228.71875 Z M 126.769531 228.71875 "/>
<path style=" stroke:none;fill-rule:nonzero;fill:rgb(100%,52.159119%,79.60968%);fill-opacity:1;" d="M 97.632812 250.433594 L 83.136719 253.039062 C 83.039062 253.039062 82.941406 253.085938 82.84375 253.085938 C 82.007812 253.085938 81.320312 252.496094 81.125 251.660156 C 80.976562 250.726562 81.566406 249.84375 82.5 249.648438 L 97.09375 247.042969 C 97.4375 247.730469 97.78125 248.910156 97.632812 250.433594 Z M 97.632812 250.433594 "/>
<path style=" stroke:none;fill-rule:nonzero;fill:rgb(15.689087%,10.978699%,13.328552%);fill-opacity:1;" d="M 107.265625 170.152344 L 109.820312 152.167969 C 110.066406 151.578125 110.210938 150.941406 110.210938 150.253906 C 110.210938 147.207031 107.410156 144.847656 102.941406 143.769531 C 102.203125 143.570312 101.367188 143.421875 100.53125 143.324219 C 99.550781 143.226562 98.519531 143.128906 97.4375 143.128906 C 89.917969 143.128906 84.660156 146.027344 84.660156 150.203125 C 84.660156 150.941406 84.859375 151.679688 85.152344 152.316406 L 87.609375 169.855469 C 87.609375 169.953125 87.558594 170.003906 87.558594 170.101562 C 87.558594 172.410156 91.984375 174.230469 97.386719 174.230469 C 102.300781 174.230469 106.378906 172.707031 107.117188 170.742188 L 107.164062 170.742188 L 107.164062 170.59375 C 107.265625 170.496094 107.265625 170.300781 107.265625 170.152344 Z M 97.4375 149.023438 C 98.222656 149.023438 98.910156 149.074219 99.550781 149.121094 C 100.484375 149.222656 101.269531 149.367188 101.957031 149.566406 C 102.695312 149.761719 103.285156 150.007812 103.675781 150.203125 C 103.234375 150.449219 102.546875 150.695312 101.710938 150.890625 C 100.972656 151.089844 100.140625 151.234375 99.15625 151.332031 C 98.617188 151.382812 98.027344 151.433594 97.386719 151.433594 C 94.390625 151.433594 92.226562 150.792969 91.097656 150.253906 C 92.277344 149.664062 94.4375 149.023438 97.4375 149.023438 Z M 97.4375 166.023438 C 92.964844 166.023438 89.183594 167.300781 88.003906 169.023438 L 85.792969 153.398438 C 87.707031 155.804688 91.984375 157.378906 97.4375 157.378906 C 97.683594 157.378906 97.976562 157.378906 98.222656 157.378906 C 99.105469 157.378906 99.941406 157.277344 100.730469 157.179688 C 104.660156 156.6875 107.65625 155.3125 109.179688 153.300781 L 106.96875 169.121094 C 105.789062 167.300781 102.007812 166.023438 97.4375 166.023438 Z M 97.4375 166.023438 "/>
<path style=" stroke:none;fill-rule:nonzero;fill:rgb(45.098877%,80.389404%,100%);fill-opacity:1;" d="M 98.222656 157.328125 C 99.105469 157.328125 99.941406 157.230469 100.730469 157.132812 L 98.761719 169.023438 C 98.664062 169.609375 98.125 170.054688 97.535156 170.054688 C 97.484375 170.054688 97.386719 170.054688 97.339844 170.054688 C 96.652344 169.953125 96.207031 169.316406 96.304688 168.628906 Z M 105.296875 130.355469 C 105.25 130.355469 105.199219 130.355469 105.152344 130.355469 C 105.152344 129.765625 104.757812 129.222656 104.121094 129.125 C 103.429688 129.027344 102.792969 129.46875 102.695312 130.15625 L 100.484375 143.375 L 99.5 149.222656 L 99.15625 151.433594 C 100.140625 151.335938 100.972656 151.1875 101.710938 150.988281 L 101.90625 149.664062 L 102.890625 143.816406 L 102.941406 143.523438 C 103.039062 143.570312 103.136719 143.667969 103.285156 143.667969 C 103.332031 143.667969 103.332031 143.667969 103.382812 143.667969 C 103.726562 143.667969 104.070312 143.421875 104.121094 143.03125 L 105.886719 131.238281 C 105.988281 130.796875 105.691406 130.402344 105.296875 130.355469 Z M 105.296875 130.355469 "/>
<path style=" stroke:none;fill-rule:nonzero;fill:rgb(15.689087%,10.978699%,13.328552%);fill-opacity:1;" d="M 102.398438 143.667969 C 100.828125 143.667969 100.433594 143.128906 100.386719 143.03125 L 100.828125 142.785156 L 100.628906 142.882812 L 100.828125 142.734375 C 100.828125 142.734375 101.171875 143.179688 102.742188 143.128906 L 104.707031 131.191406 L 105.199219 131.289062 L 103.1875 143.570312 L 102.988281 143.570312 C 102.742188 143.667969 102.546875 143.667969 102.398438 143.667969 Z M 102.398438 143.667969 "/>
<path style=" stroke:none;fill-rule:nonzero;fill:rgb(100%,52.159119%,79.60968%);fill-opacity:1;" d="M 180.082031 96.453125 L 208.53125 95.027344 C 208.976562 95.027344 209.367188 95.371094 209.417969 95.816406 L 210.300781 123.425781 C 210.300781 123.871094 209.957031 124.261719 209.515625 124.261719 L 181.359375 125.6875 C 180.917969 125.6875 180.527344 125.34375 180.476562 124.902344 L 179.296875 97.289062 C 179.296875 96.894531 179.640625 96.503906 180.082031 96.453125 Z M 180.082031 96.453125 "/>
<path style=" stroke:none;fill-rule:nonzero;fill:rgb(95.689392%,87.838745%,85.099792%);fill-opacity:1;" d="M 166.867188 76.652344 L 195.609375 75.523438 C 196.003906 75.523438 196.296875 75.816406 196.347656 76.160156 L 197.527344 103.28125 C 197.527344 103.675781 197.230469 103.96875 196.886719 104.019531 L 168.144531 105.640625 C 167.75 105.640625 167.457031 105.347656 167.40625 105.003906 L 166.226562 77.390625 C 166.179688 76.996094 166.472656 76.703125 166.867188 76.652344 Z M 166.867188 76.652344 "/>
<path style=" stroke:none;fill-rule:nonzero;fill:rgb(91.758728%,38.038635%,29.40979%);fill-opacity:1;" d="M 182.292969 78.960938 C 182.292969 79.503906 181.851562 79.945312 181.3125 79.945312 C 180.769531 79.945312 180.328125 79.503906 180.328125 78.960938 C 180.328125 78.421875 180.769531 77.980469 181.3125 77.980469 C 181.851562 77.929688 182.292969 78.371094 182.292969 78.960938 Z M 182.292969 78.960938 "/>
<path style=" stroke:none;fill-rule:nonzero;fill:rgb(15.689087%,10.978699%,13.328552%);fill-opacity:1;" d="M 197.035156 96.109375 C 197.035156 95.816406 197.527344 95.816406 197.527344 96.109375 C 197.625 98.714844 197.722656 101.367188 197.820312 103.96875 C 197.820312 104.117188 197.722656 104.214844 197.574219 104.214844 C 191.582031 104.363281 185.585938 104.953125 179.640625 105.445312 C 179.347656 105.492188 179.347656 105.003906 179.640625 104.953125 C 183.769531 104.609375 187.945312 104.265625 192.074219 103.96875 C 193.105469 103.921875 194.136719 103.824219 195.167969 103.773438 C 195.609375 103.773438 196.152344 103.824219 196.59375 103.726562 C 196.9375 103.824219 197.132812 103.726562 197.28125 103.480469 C 197.28125 103.136719 197.230469 102.839844 197.230469 102.496094 C 197.230469 100.335938 197.132812 98.222656 197.035156 96.109375 Z M 197.035156 96.109375 "/>
<path style="fill:none;stroke-width:1.72022;stroke-linecap:butt;stroke-linejoin:miter;stroke:rgb(0%,0%,0%);stroke-opacity:1;stroke-miterlimit:4;" d="M 67.093741 44.265644 L 61.312491 44.265644 L 61.312491 17.510434 L 67.093741 17.510434 L 67.093741 6.843766 L 42.401031 6.843766 L 42.401031 17.510434 L 47.890615 17.510434 L 47.890615 25.135435 L 30.979155 25.135435 L 30.979155 17.510434 L 36.406239 17.510434 L 36.406239 6.843766 L 11.781237 6.843766 L 11.781237 17.510434 L 17.48957 17.510434 L 17.48957 44.265644 L 11.781237 44.265644 L 11.781237 55.00002 L 36.406239 55.00002 L 36.406239 44.265644 L 30.979155 44.265644 L 30.979155 36.08856 L 47.890615 36.08856 L 47.890615 44.265644 L 42.401031 44.265644 L 42.401031 55.00002 L 67.093741 55.00002 Z M 125.359371 30.911477 C 125.359371 14.95835 114.494787 6.156266 98.671869 6.156266 C 82.916659 6.156266 71.91145 15.156267 71.91145 30.911477 C 71.91145 47.088561 82.916659 55.68752 98.671869 55.68752 C 114.494787 55.68752 125.359371 47.088561 125.359371 30.911477 Z M 111.739578 30.911477 C 111.739578 38.973977 106.651036 44.067728 98.671869 44.067728 C 90.963535 44.067728 85.536451 38.973977 85.536451 30.911477 C 85.536451 23.000018 90.895826 17.776059 98.671869 17.776059 C 106.651036 17.776059 111.739578 22.598976 111.739578 30.911477 Z M 199.531252 17.510434 L 204.625002 17.510434 L 204.625002 6.843766 L 179.848959 6.843766 L 179.848959 17.510434 L 184.802084 17.510434 L 182.671876 23.421893 C 181.645834 27.421893 180.671875 31.333352 180 34.979185 L 171.046875 7.598975 L 161.203124 7.598975 L 152.604165 34.979185 C 151.916665 31.40106 151.223956 27.421893 150.067706 23.755226 L 147.796873 17.510434 L 152.604165 17.510434 L 152.604165 6.843766 L 127.843746 6.843766 L 127.843746 17.510434 L 132.999996 17.510434 L 146.958331 55.00002 L 157.979165 55.00002 L 166.156249 31.953143 L 174.692708 55.00002 L 185.843751 55.00002 Z M 267.296882 6.843766 L 220.989587 6.843766 L 220.989587 25.489601 L 232.479171 25.489601 L 232.895838 18.401059 L 237.29688 18.401059 L 237.29688 44.265644 L 231.588546 44.265644 L 231.588546 55.00002 L 256.697923 55.00002 L 256.697923 44.265644 L 251.052089 44.265644 L 251.052089 18.401059 L 255.385423 18.401059 L 255.807298 25.489601 L 267.296882 25.489601 Z M 324.25522 30.911477 C 324.25522 14.95835 313.385428 6.156266 297.56251 6.156266 C 281.8073 6.156266 270.807299 15.156267 270.807299 30.911477 C 270.807299 47.088561 281.8073 55.68752 297.56251 55.68752 C 313.385428 55.68752 324.25522 47.088561 324.25522 30.911477 Z M 310.630219 30.911477 C 310.630219 38.973977 305.541677 44.067728 297.56251 44.067728 C 289.854176 44.067728 284.427092 38.973977 284.427092 30.911477 C 284.427092 23.000018 289.786468 17.776059 297.56251 17.776059 C 305.541677 17.776059 310.630219 22.598976 310.630219 30.911477 Z M 371.307308 6.843766 L 343.171889 6.843766 L 343.171889 17.645851 L 348.885431 17.645851 L 348.885431 44.265644 L 343.171889 44.265644 L 343.171889 55.00002 L 368.703141 55.00002 L 368.703141 44.619811 L 362.572932 44.265644 L 362.572932 39.380227 L 371.307308 39.380227 C 381.08335 39.312519 390.572934 34.421894 390.572934 23.151059 C 390.572934 11.796892 382.531267 6.843766 371.307308 6.843766 Z M 362.572932 28.30731 L 362.572932 18.598976 L 371.307308 18.598976 C 374.416683 18.598976 376.953141 20.114601 376.953141 23.286476 C 376.953141 26.729185 374.416683 28.30731 371.307308 28.30731 Z M 400.27606 17.510434 L 400.27606 44.265644 L 394.494809 44.265644 L 394.494809 55.00002 L 419.18752 55.00002 L 419.18752 45.375019 L 413.828144 44.953144 L 413.828144 39.447936 L 419.119811 39.447936 L 425.119812 48.046895 L 425.119812 55.00002 L 444.515647 55.00002 L 444.515647 44.265644 L 438.250021 44.265644 L 433.161479 37.531269 C 440.588563 34.020852 442.520855 29.130226 442.520855 23.421893 C 442.520855 14.755225 436.119813 6.843766 423.807312 6.843766 L 394.494809 6.843766 L 394.494809 17.510434 Z M 413.828144 17.708351 L 423.739604 17.708351 C 427.385437 17.708351 429.031271 20.395851 429.031271 23.489601 C 429.031271 26.578143 427.25002 29.265643 423.87502 29.265643 L 413.828144 29.265643 Z M 482.4844 38.692727 L 482.213567 43.510436 L 468.458357 43.510436 L 468.458357 36.218769 L 480.01565 36.218769 L 480.01565 25.61981 L 468.458357 25.61981 L 468.458357 18.197934 L 481.32815 18.197934 L 481.593775 23.000018 L 491.906276 23.000018 L 491.906276 6.843766 L 449.682314 6.843766 L 449.682314 17.510434 L 454.973981 17.510434 L 454.973981 44.265644 L 449.682314 44.265644 L 449.682314 55.00002 L 492.812526 55.00002 L 492.812526 38.692727 Z M 526.375029 6.843766 L 498.244818 6.843766 L 498.244818 17.645851 L 503.953152 17.645851 L 503.953152 44.265644 L 498.244818 44.265644 L 498.244818 55.00002 L 523.77607 55.00002 L 523.77607 44.619811 L 517.640653 44.265644 L 517.640653 39.380227 L 526.375029 39.380227 C 536.151071 39.312519 545.640655 34.421894 545.640655 23.151059 C 545.640655 11.796892 537.598988 6.843766 526.375029 6.843766 Z M 517.640653 28.30731 L 517.640653 18.598976 L 526.375029 18.598976 C 529.484404 18.598976 532.020862 20.114601 532.020862 23.286476 C 532.020862 26.729185 529.484404 28.30731 526.375029 28.30731 Z M 583.140658 55.00002 L 607.07816 55.00002 L 607.07816 44.265644 L 601.786493 44.265644 L 585.07295 6.843766 L 559.609406 6.843766 L 559.609406 17.510434 L 565.052115 17.510434 L 553.072947 44.265644 L 547.697947 44.265644 L 547.697947 55.00002 L 571.854199 55.00002 L 571.854199 45.291686 L 567.31774 44.953144 L 568.833365 40.687519 L 585.895867 40.687519 L 587.406284 44.890644 L 583.140658 45.291686 Z M 581.833366 30.020852 L 572.895866 30.020852 L 577.296908 18.401059 Z M 616.020869 17.510434 L 616.020869 44.265644 L 610.244827 44.265644 L 610.244827 55.00002 L 634.937537 55.00002 L 634.937537 45.375019 L 629.578162 44.953144 L 629.578162 39.447936 L 634.869829 39.447936 L 640.864621 48.046895 L 640.864621 55.00002 L 660.265665 55.00002 L 660.265665 44.265644 L 654.000039 44.265644 L 648.911497 37.531269 C 656.333373 34.020852 658.265664 29.130226 658.265664 23.421893 C 658.265664 14.755225 651.864622 6.843766 639.552121 6.843766 L 610.244827 6.843766 L 610.244827 17.510434 Z M 629.578162 17.708351 L 639.489621 17.708351 C 643.130246 17.708351 644.77608 20.395851 644.77608 23.489601 C 644.77608 26.578143 643.000038 29.265643 639.61983 29.265643 L 629.578162 29.265643 Z M 698.234418 38.692727 L 697.963584 43.510436 L 684.208375 43.510436 L 684.208375 36.218769 L 695.760459 36.218769 L 695.760459 25.61981 L 684.208375 25.61981 L 684.208375 18.197934 L 697.072959 18.197934 L 697.343793 23.000018 L 707.656293 23.000018 L 707.656293 6.843766 L 665.427123 6.843766 L 665.427123 17.510434 L 670.71879 17.510434 L 670.71879 44.265644 L 665.427123 44.265644 L 665.427123 55.00002 L 708.562543 55.00002 L 708.562543 38.692727 Z M 698.234418 38.692727 " transform="matrix(0.75,0,0,0.75,0.0000108,46.999988)"/>
<path style="fill:none;stroke-width:1.72022;stroke-linecap:butt;stroke-linejoin:miter;stroke:rgb(0%,0%,0%);stroke-opacity:1;stroke-miterlimit:4;" d="M 158.40104 112.26565 L 152.135415 112.26565 L 152.135415 105.666691 L 164.583332 105.666691 L 164.583332 94.578149 L 152.135415 94.578149 L 152.135415 86.197939 L 165.067707 86.197939 L 165.406249 91.000023 L 175.666667 91.000023 L 175.666667 74.843772 L 133.286455 74.843772 L 133.286455 85.510439 L 138.578122 85.510439 L 138.578122 112.26565 L 133.286455 112.26565 L 133.286455 123.000026 L 158.40104 123.000026 Z M 232.208338 98.911482 C 232.208338 82.958356 221.338545 74.156272 205.515627 74.156272 C 189.760418 74.156272 178.760417 83.156273 178.760417 98.911482 C 178.760417 115.088567 189.760418 123.687526 205.515627 123.687526 C 221.338545 123.687526 232.208338 115.088567 232.208338 98.911482 Z M 218.583337 98.911482 C 218.583337 106.973983 213.494795 112.067733 205.515627 112.067733 C 197.807293 112.067733 192.38021 106.973983 192.38021 98.911482 C 192.38021 91.000023 197.739585 85.776064 205.515627 85.776064 C 213.494795 85.776064 218.583337 90.598982 218.583337 98.911482 Z M 242.802089 85.510439 L 242.802089 112.26565 L 237.026047 112.26565 L 237.026047 123.000026 L 261.718757 123.000026 L 261.718757 113.375025 L 256.359382 112.95315 L 256.359382 107.447941 L 261.651049 107.447941 L 267.645841 116.0469 L 267.645841 123.000026 L 287.046884 123.000026 L 287.046884 112.26565 L 280.781259 112.26565 L 275.692716 105.531274 C 283.114592 102.020857 285.046884 97.130232 285.046884 91.421898 C 285.046884 82.755231 278.645842 74.843772 266.338549 74.843772 L 237.026047 74.843772 L 237.026047 85.510439 Z M 256.359382 85.708356 L 266.270841 85.708356 C 269.911466 85.708356 271.562508 88.395856 271.562508 91.489607 C 271.562508 94.578149 269.781258 97.265649 266.401049 97.265649 L 256.359382 97.265649 Z M 350.958348 74.843772 L 304.651052 74.843772 L 304.651052 93.489607 L 316.140636 93.489607 L 316.557303 86.401065 L 320.958345 86.401065 L 320.958345 112.26565 L 315.250011 112.26565 L 315.250011 123.000026 L 340.359388 123.000026 L 340.359388 112.26565 L 334.718763 112.26565 L 334.718763 86.401065 L 339.052097 86.401065 L 339.468763 93.489607 L 350.958348 93.489607 Z M 388.583351 106.692733 L 388.312517 111.510442 L 374.557308 111.510442 L 374.557308 104.218774 L 386.1146 104.218774 L 386.1146 93.619815 L 374.557308 93.619815 L 374.557308 86.197939 L 387.421892 86.197939 L 387.692726 91.000023 L 398.005226 91.000023 L 398.005226 74.843772 L 355.776056 74.843772 L 355.776056 85.510439 L 361.067723 85.510439 L 361.067723 112.26565 L 355.776056 112.26565 L 355.776056 123.000026 L 398.911477 123.000026 L 398.911477 106.692733 Z M 410.119811 85.510439 L 410.119811 112.26565 L 404.33856 112.26565 L 404.33856 123.000026 L 429.031271 123.000026 L 429.031271 113.375025 L 423.671895 112.95315 L 423.671895 107.447941 L 428.963562 107.447941 L 434.958354 116.0469 L 434.958354 123.000026 L 454.359398 123.000026 L 454.359398 112.26565 L 448.093772 112.26565 L 443.00523 105.531274 C 450.432314 102.020857 452.359398 97.130232 452.359398 91.421898 C 452.359398 82.755231 445.963564 74.843772 433.651063 74.843772 L 404.33856 74.843772 L 404.33856 85.510439 Z M 423.671895 85.708356 L 433.583354 85.708356 C 437.229188 85.708356 438.875021 88.395856 438.875021 91.489607 C 438.875021 94.578149 437.093771 97.265649 433.718771 97.265649 L 423.671895 97.265649 Z M 503.479193 74.843772 L 491.234401 90.463565 L 479.192733 74.843772 L 459.369815 74.843772 L 459.369815 85.645856 L 465.015649 85.645856 L 465.015649 112.26565 L 459.369815 112.26565 L 459.369815 123.000026 L 484.213567 123.000026 L 484.213567 112.26565 L 478.437525 112.26565 L 478.437525 93.619815 L 490.479192 108.20315 L 491.859401 108.20315 L 504.171902 93.557315 L 504.171902 112.26565 L 498.45836 112.26565 L 498.45836 123.000026 L 523.286487 123.000026 L 523.286487 112.26565 L 517.656278 112.26565 L 517.656278 85.645856 L 523.286487 85.645856 L 523.286487 74.843772 Z M 529.692737 98.442732 L 529.692737 108.489608 L 555.697948 108.489608 L 555.697948 98.442732 Z M 561.395865 112.755233 L 561.395865 123.000026 L 589.062534 123.000026 L 589.062534 112.755233 L 581.906283 112.755233 L 581.906283 74.020855 L 561.81774 81.312522 L 561.81774 91.973982 L 569.109407 89.843773 L 569.109407 112.755233 Z M 561.395865 112.755233 " transform="matrix(0.75,0,0,0.75,0.0000108,46.999988)"/>
<path style="fill:none;stroke-width:1.72022;stroke-linecap:butt;stroke-linejoin:miter;stroke:rgb(0%,0%,0%);stroke-opacity:1;stroke-miterlimit:4;" d="M 221.515629 153.510445 L 226.739587 153.510445 L 226.739587 180.265656 L 221.515629 180.265656 L 221.515629 191.000031 L 251.515631 191.000031 C 260.385424 190.932323 270.296883 187.692739 270.296883 176.822947 C 270.296883 172.489613 268.093757 167.953155 263.609382 165.536488 C 267.807299 163.687529 268.984383 159.911487 268.984383 156.265654 C 268.984383 147.041694 261.072924 142.843777 251.364589 142.843777 L 221.515629 142.843777 Z M 240.093755 161.421904 L 240.093755 153.510445 L 251.161464 153.510445 C 253.848965 153.510445 255.36459 155.489612 255.36459 157.489612 C 255.36459 160.109404 253.161465 161.421904 250.895839 161.421904 Z M 240.093755 180.619822 L 240.093755 170.911488 L 251.583339 170.911488 C 254.473965 170.911488 256.73959 172.62503 256.73959 175.796905 C 256.73959 178.203155 255.093756 180.619822 251.583339 180.619822 Z M 327.802096 166.911488 C 327.802096 150.958361 316.932303 142.156277 301.109385 142.156277 C 285.354176 142.156277 274.354175 151.156278 274.354175 166.911488 C 274.354175 183.088572 285.354176 191.687531 301.109385 191.687531 C 316.932303 191.687531 327.802096 183.088572 327.802096 166.911488 Z M 314.177095 166.911488 C 314.177095 174.973988 309.088553 180.067739 301.109385 180.067739 C 293.401051 180.067739 287.973967 174.973988 287.973967 166.911488 C 287.973967 159.000029 293.333343 153.77607 301.109385 153.77607 C 309.088553 153.77607 314.177095 158.598987 314.177095 166.911488 Z M 366.192724 191.000031 L 390.130226 191.000031 L 390.130226 180.265656 L 384.838559 180.265656 L 368.125016 142.843777 L 342.661472 142.843777 L 342.661472 153.510445 L 348.104181 153.510445 L 336.130221 180.265656 L 330.755221 180.265656 L 330.755221 191.000031 L 354.906265 191.000031 L 354.906265 181.291697 L 350.375014 180.953156 L 351.885431 176.68753 L 368.947932 176.68753 L 370.463558 180.890656 L 366.192724 181.291697 Z M 364.885432 166.020863 L 355.947931 166.020863 L 360.348973 154.40107 Z M 399.072935 153.510445 L 399.072935 180.265656 L 393.296893 180.265656 L 393.296893 191.000031 L 417.989603 191.000031 L 417.989603 181.375031 L 412.630228 180.953156 L 412.630228 175.447947 L 417.921895 175.447947 L 423.916687 184.046906 L 423.916687 191.000031 L 443.31773 191.000031 L 443.31773 180.265656 L 437.052105 180.265656 L 431.963563 173.53128 C 439.385438 170.020863 441.31773 165.130238 441.31773 159.421904 C 441.31773 150.755236 434.921896 142.843777 422.609395 142.843777 L 393.296893 142.843777 L 393.296893 153.510445 Z M 412.630228 153.708362 L 422.541687 153.708362 C 426.18752 153.708362 427.833354 156.395862 427.833354 159.489612 C 427.833354 162.578154 426.052104 165.265654 422.677103 165.265654 L 412.630228 165.265654 Z M 448.614606 153.510445 L 453.838564 153.510445 L 453.838564 180.265656 L 448.614606 180.265656 L 448.614606 191.000031 L 474.484399 191.000031 C 491.750026 191.000031 499.796901 179.78128 499.796901 166.442738 C 499.796901 153.223987 491.479192 142.843777 474.484399 142.843777 L 448.614606 142.843777 Z M 467.395857 179.510447 L 467.395857 154.130237 L 474.484399 154.130237 C 482.7969 154.130237 486.307317 159.755237 486.307317 166.307321 C 486.307317 172.911488 483.218775 179.510447 474.484399 179.510447 Z M 467.395857 179.510447 " transform="matrix(0.75,0,0,0.75,0.0000108,46.999988)"/>
<path style="fill:none;stroke-width:1.72022;stroke-linecap:butt;stroke-linejoin:miter;stroke:rgb(0%,0%,0%);stroke-opacity:1;stroke-miterlimit:4;" d="M 82.156242 242.692744 L 81.885409 247.510453 L 68.130199 247.510453 L 68.130199 240.218785 L 79.687492 240.218785 L 79.687492 229.619826 L 68.130199 229.619826 L 68.130199 222.197951 L 80.994784 222.197951 L 81.265617 227.000034 L 91.578118 227.000034 L 91.578118 210.843783 L 49.348948 210.843783 L 49.348948 221.510451 L 54.640615 221.510451 L 54.640615 248.265661 L 49.348948 248.265661 L 49.348948 259.000037 L 92.484368 259.000037 L 92.484368 242.692744 Z M 123.645829 226.312534 L 117.73437 218.401075 L 117.73437 210.843783 L 97.97916 210.843783 L 97.97916 221.223992 L 103.557286 221.223992 L 112.156245 232.932326 L 101.624994 248.265661 L 96.130202 248.265661 L 96.130202 259.000037 L 119.583329 259.000037 L 119.583329 248.822953 L 116.286453 248.265661 L 119.713537 243.380244 L 125.911454 251.70837 L 125.911454 259.000037 L 147.109373 259.000037 L 147.109373 248.265661 L 139.80208 248.265661 L 131.067705 236.442743 L 141.666664 221.223992 L 146.760414 221.223992 L 146.760414 210.843783 L 123.781246 210.843783 L 123.781246 220.88545 L 127.223954 221.223992 Z M 185.218751 259.000037 L 209.156253 259.000037 L 209.156253 248.265661 L 203.864586 248.265661 L 187.151043 210.843783 L 161.687499 210.843783 L 161.687499 221.510451 L 167.130208 221.510451 L 155.156248 248.265661 L 149.781248 248.265661 L 149.781248 259.000037 L 173.932291 259.000037 L 173.932291 249.291703 L 169.395833 248.953161 L 170.911458 244.687536 L 187.973959 244.687536 L 189.484376 248.890661 L 185.218751 249.291703 Z M 183.911459 234.020868 L 174.973958 234.020868 L 179.375 222.401076 Z M 256.630215 210.843783 L 244.385422 226.463576 L 232.343755 210.843783 L 212.526045 210.843783 L 212.526045 221.645867 L 218.16667 221.645867 L 218.16667 248.265661 L 212.526045 248.265661 L 212.526045 259.000037 L 237.364588 259.000037 L 237.364588 248.265661 L 231.588546 248.265661 L 231.588546 229.619826 L 243.630214 244.203161 L 245.010422 244.203161 L 257.322923 229.557326 L 257.322923 248.265661 L 251.609381 248.265661 L 251.609381 259.000037 L 276.437508 259.000037 L 276.437508 248.265661 L 270.807299 248.265661 L 270.807299 221.645867 L 276.437508 221.645867 L 276.437508 210.843783 Z M 282.630217 221.510451 L 288.270842 221.510451 L 288.270842 248.265661 L 282.630217 248.265661 L 282.630217 259.000037 L 307.671886 259.000037 L 307.671886 248.265661 L 301.963552 248.265661 L 301.963552 221.510451 L 307.671886 221.510451 L 307.671886 210.843783 L 282.630217 210.843783 Z M 351.093764 237.197952 L 330.718763 210.843783 L 313.453136 210.843783 L 313.453136 221.645867 L 319.166678 221.645867 L 319.166678 248.265661 L 313.453136 248.265661 L 313.453136 259.000037 L 337.677097 259.000037 L 337.677097 248.265661 L 332.989596 248.265661 L 332.989596 243.515661 L 332.786471 233.067743 L 352.807306 259.000037 L 364.432307 259.000037 L 364.432307 221.645867 L 370.010432 221.645867 L 370.010432 210.843783 L 345.989597 210.843783 L 345.989597 221.645867 L 350.677098 221.645867 L 350.677098 227.354201 C 350.807306 229.20316 350.807306 231.42191 351.093764 237.197952 Z M 408.739602 259.000037 L 432.677104 259.000037 L 432.677104 248.265661 L 427.385437 248.265661 L 410.671894 210.843783 L 385.20835 210.843783 L 385.20835 221.510451 L 390.651059 221.510451 L 378.6771 248.265661 L 373.302099 248.265661 L 373.302099 259.000037 L 397.453143 259.000037 L 397.453143 249.291703 L 392.916684 248.953161 L 394.432309 244.687536 L 411.494811 244.687536 L 413.005228 248.890661 L 408.739602 249.291703 Z M 407.432311 234.020868 L 398.49481 234.020868 L 402.895852 222.401076 Z M 480.843775 210.843783 L 434.531271 210.843783 L 434.531271 229.489618 L 446.020855 229.489618 L 446.44273 222.401076 L 450.843772 222.401076 L 450.843772 248.265661 L 445.13023 248.265661 L 445.13023 259.000037 L 470.244816 259.000037 L 470.244816 248.265661 L 464.598982 248.265661 L 464.598982 222.401076 L 468.932316 222.401076 L 469.354191 229.489618 L 480.843775 229.489618 Z M 485.510442 221.510451 L 491.151067 221.510451 L 491.151067 248.265661 L 485.510442 248.265661 L 485.510442 259.000037 L 510.552111 259.000037 L 510.552111 248.265661 L 504.843777 248.265661 L 504.843777 221.510451 L 510.552111 221.510451 L 510.552111 210.843783 L 485.510442 210.843783 Z M 568.828157 234.911493 C 568.828157 218.958367 557.958364 210.156283 542.135447 210.156283 C 526.380237 210.156283 515.380236 219.156284 515.380236 234.911493 C 515.380236 251.088578 526.380237 259.687537 542.135447 259.687537 C 557.958364 259.687537 568.828157 251.088578 568.828157 234.911493 Z M 555.203156 234.911493 C 555.203156 242.973994 550.114614 248.067744 542.135447 248.067744 C 534.427113 248.067744 529.000029 242.973994 529.000029 234.911493 C 529.000029 227.000034 534.359404 221.776076 542.135447 221.776076 C 550.114614 221.776076 555.203156 226.598993 555.203156 234.911493 Z M 611.286494 237.197952 L 590.911492 210.843783 L 573.645866 210.843783 L 573.645866 221.645867 L 579.3542 221.645867 L 579.3542 248.265661 L 573.645866 248.265661 L 573.645866 259.000037 L 597.864618 259.000037 L 597.864618 248.265661 L 593.177117 248.265661 L 593.177117 243.515661 L 592.979201 233.067743 L 613.000036 259.000037 L 624.619828 259.000037 L 624.619828 221.645867 L 630.197954 221.645867 L 630.197954 210.843783 L 606.177118 210.843783 L 606.177118 221.645867 L 610.864619 221.645867 L 610.864619 227.354201 C 611.000035 229.20316 611.000035 231.42191 611.286494 237.197952 Z M 645.197955 243.109411 L 658.953164 243.109411 C 659.156289 234.088577 672.088582 234.713577 672.15629 224.802117 C 672.223999 214.13545 663.557331 209.401075 652.552122 209.401075 C 641.822955 209.401075 633.156287 214.890658 634.177121 225.557326 L 646.708372 225.557326 C 646.708372 221.578159 649.46358 220.468784 652.552122 220.468784 C 656.130248 220.468784 657.843789 222.817742 657.776081 224.937534 C 657.708373 226.463576 656.619831 227.911493 654.348997 229.20316 C 650.489622 231.42191 645.666705 233.755243 645.197955 243.109411 Z M 652.218789 259.33337 C 662.53129 259.33337 662.463581 245.796911 652.218789 245.796911 C 642.08858 245.796911 642.08858 259.33337 652.218789 259.33337 Z M 652.218789 259.33337 " transform="matrix(0.75,0,0,0.75,0.0000108,46.999988)"/>
</g>
</svg>
