<svg xmlns="http://www.w3.org/2000/svg" xmlns:xlink="http://www.w3.org/1999/xlink" width="720" height="400" viewBox="0 0 540 300" xmlns:v="https://vecta.io/nano"><style><![CDATA[.K{stroke:none}.L{fill-rule:evenodd}.M{fill-opacity:1}.N{fill:rgb(18.818665%,23.529053%,27.839661%)}.O{fill:rgb(0%,43.919373%,71.759033%)}]]></style><defs><filter id="A" x="0%" y="0%" width="100%" height="100%"><feColorMatrix in="SourceGraphic" values="0 0 0 0 1 0 0 0 0 1 0 0 0 0 1 0 0 0 1 0"/></filter><mask id="B"><g filter="url(#A)"><path d="M0 0h540v300H0z" fill="rgb(0%,0%,0%)" fill-opacity=".298" class="K"/></g></mask><clipPath id="C"><path d="M.715 0H136v136H.715zm0 0"/></clipPath><clipPath id="D"><path d="M158 76h141.965v16H158zm0 0"/></clipPath><clipPath id="E"><path d="M.715 164H136v136H.715zm0 0"/></clipPath><clipPath id="F"><path d="M158 241h141.965v16H158zm0 0"/></clipPath><clipPath id="G"><path d="M0 0h301v300H0z"/></clipPath><g id="H" clip-path="url(#G)"><g clip-path="url(#C)"><path d="M6.133.227h124.156c2.953 0 5.418 2.465 5.418 5.422v124.152a5.47 5.47 0 0 1-5.418 5.418H6.133c-2.957 0-5.418-2.461-5.418-5.418V5.648A5.47 5.47 0 0 1 6.133.227zm87.203 96.07c3.449 2.957 10.348 7.391 12.809 9.363 3.941 3.449-.492 9.359-4.434 9.359-4.434 0-13.793-7.883-17.242-10.84-9.852 5.422-24.633 5.914-34.488.988-4.434-1.973-8.375-4.93-11.824-8.871-2.953-3.941-5.418-8.867-6.895-14.285-3.449-10.84-3.449-24.633 0-35.965 1.477-5.422 3.941-9.855 7.387-13.797 2.957-3.941 6.898-6.895 11.332-8.867 10.84-4.434 26.113-3.941 35.965 2.465 5.422 3.449 9.855 8.867 12.813 15.27 6.895 16.262 5.91 41.387-5.422 55.18zM82.004 85.953c2.465-2.957 2.957-4.926 3.941-8.375 2.465-8.871 1.973-21.187-.984-29.562-1.969-4.434-4.434-7.883-7.883-10.344-5.91-3.941-13.793-4.93-20.199-1.48-2.465.984-4.926 2.957-6.406 5.422-1.969 2.461-3.445 5.91-4.434 9.852-2.953 10.348-2.461 26.605 4.434 35.473 5.914 7.391 14.781 9.855 23.156 5.914-3.449-2.957-7.883-4.437-10.836-6.898-3.449-2.957 0-8.867 3.445-8.867s9.363 2.953 15.766 8.867zm0 0" class="K L M N"/></g><path d="M161.324 43.582h79.359c.328 0 .641.09.945.262a2.58 2.58 0 0 1 .797.75c.23.32.41.695.535 1.117a4.63 4.63 0 0 1 .188 1.32v8.027a4.63 4.63 0 0 1-.187 1.32c-.125.422-.305.797-.535 1.117a2.58 2.58 0 0 1-.797.75c-.305.176-.617.262-.945.262h-79.359a1.84 1.84 0 0 1-.941-.262 2.58 2.58 0 0 1-.797-.75c-.234-.32-.41-.695-.535-1.117a4.63 4.63 0 0 1-.187-1.32v-8.027a4.63 4.63 0 0 1 .188-1.32c.125-.422.301-.797.535-1.117a2.58 2.58 0 0 1 .797-.75c.301-.172.617-.262.941-.262zm0 0" class="K L M N"/><g clip-path="url(#D)"><path d="M163.297 76.59h132.23c.293 0 .582.023.867.066a5.38 5.38 0 0 1 .832.199c.266.086.523.191.766.316s.465.27.672.43a3.7 3.7 0 0 1 .551.523c.16.188.297.387.41.594s.195.426.254.648a2.8 2.8 0 0 1 .082.672v8.027a2.83 2.83 0 0 1-.082.676c-.059.219-.145.438-.254.645s-.25.41-.41.598a3.7 3.7 0 0 1-.551.523c-.207.16-.43.301-.672.426s-.5.234-.766.32a5.37 5.37 0 0 1-.832.195c-.285.047-.574.066-.867.066h-132.23a5.37 5.37 0 0 1-.867-.066 5.22 5.22 0 0 1-.828-.195c-.27-.086-.527-.191-.77-.32s-.465-.266-.672-.426-.387-.336-.551-.523-.297-.387-.41-.598-.195-.426-.25-.645a2.65 2.65 0 0 1-.086-.676v-8.027a2.62 2.62 0 0 1 .086-.672c.055-.223.141-.437.25-.648s.25-.406.41-.594.348-.363.551-.523.43-.305.672-.43a4.97 4.97 0 0 1 .77-.316c.266-.09.543-.152.828-.199s.574-.066.867-.066zm0 0" class="K L M N"/></g><g clip-path="url(#E)"><path d="M130.289 164.781H6.133c-2.957 0-5.418 2.461-5.418 5.418v124.152c0 2.957 2.461 5.422 5.418 5.422h124.156c2.953 0 5.418-2.465 5.418-5.422V170.199a5.47 5.47 0 0 0-5.418-5.418zM87.918 262.82l-3.941-9.852H51.953l-3.941 9.852c-1.48 3.941-2.465 6.898-3.941 7.883-.984 1.48-2.465 2.465-4.926 2.465-1.973 0-3.941-.984-5.422-2.465s-1.969-2.953-1.969-4.926c0-.984 0-1.969.492-3.449 0-.984.984-2.461 1.477-4.434l20.199-51.73c.492-1.477 1.48-2.957 1.973-4.926.984-2.465 1.969-3.941 2.957-5.418.984-.988 1.969-2.465 3.445-2.957 1.48-.984 3.449-1.48 5.422-1.48 2.461 0 4.434.496 5.91 1.48 1.48.492 2.465 1.477 3.449 2.957s1.48 2.953 2.465 4.434l1.969 5.91 20.691 51.238c1.973 3.941 2.465 6.406 2.465 8.375s-.492 3.449-1.969 4.926c-1.973 1.48-3.449 2.465-5.914 2.465-.984 0-1.969-.492-2.957-.984s-1.969-.984-2.461-1.48l-1.973-3.941-1.477-3.941zm-32.023-22.168h23.648l-11.824-32.516zm0 0" class="K L M O"/></g><path d="M161.324 208.137h79.359c.328 0 .641.086.945.262s.566.422.797.746a3.77 3.77 0 0 1 .535 1.121 4.61 4.61 0 0 1 .188 1.32v8.027c0 .457-.062.895-.187 1.316s-.305.797-.535 1.121-.496.57-.797.746-.617.262-.945.262h-79.359c-.324 0-.641-.086-.941-.262s-.566-.422-.797-.746-.41-.695-.535-1.121-.187-.859-.187-1.316v-8.027a4.61 4.61 0 0 1 .188-1.32c.125-.422.301-.797.535-1.121s.496-.57.797-.746.617-.262.941-.262zm0 0" class="K L M O"/><g clip-path="url(#F)"><path d="M163.297 241.145h132.23c.293 0 .582.023.867.066a5.37 5.37 0 0 1 .832.195 5.1 5.1 0 0 1 .766.32c.242.125.465.27.672.43a3.68 3.68 0 0 1 .551.52c.16.191.297.387.41.598s.195.426.254.648.082.445.082.672v8.027a2.8 2.8 0 0 1-.082.672c-.059.223-.145.438-.254.648s-.25.406-.41.594-.344.363-.551.523-.43.305-.672.43-.5.23-.766.32a5.37 5.37 0 0 1-.832.195c-.285.043-.574.066-.867.066h-132.23c-.293 0-.578-.023-.867-.066a5.22 5.22 0 0 1-.828-.195c-.27-.09-.527-.195-.77-.32s-.465-.27-.672-.43a3.89 3.89 0 0 1-.551-.523c-.16-.187-.297-.387-.41-.594s-.195-.426-.25-.648a2.62 2.62 0 0 1-.086-.672v-8.027a2.6 2.6 0 0 1 .086-.672c.055-.223.141-.437.25-.648s.25-.406.41-.598a4.1 4.1 0 0 1 .551-.52c.207-.16.43-.305.672-.43a4.98 4.98 0 0 1 .77-.32 5.22 5.22 0 0 1 .828-.195c.289-.043.574-.066.867-.066zm0 0" class="K L M O"/></g></g></defs><g fill="rgb(100%,100%,100%)"><path d="M0 0h540v300H0z"/><path d="M0 0h540v300H0z"/></g><path d="M0 0h540v300H0z" fill="rgb(85.099792%,85.099792%,85.099792%)"/><use xlink:href="#H" mask="url(#B)" x="86"/><path d="M162.434 84.281l-.277 4.945H148.04v-7.48h11.859V70.871H148.04V63.25h13.203l.277 4.93h10.582V51.598H128.77v10.945h5.43v27.461h-5.43v11.012h44.262V84.281zm42.574-16.809l-6.066-8.117v-7.758h-20.27V62.25h5.723l8.824 12.016-10.809 15.738h-5.633v11.012h24.062V90.57l-3.379-.566 3.516-5.016 6.359 8.547v7.48h21.754V90.004h-7.5l-8.961-12.137 10.875-15.617h5.223V51.598h-23.578v10.309l3.531.344zm74.91-15.875h-47.523V70.73h11.793l.43-7.273h4.516v26.547h-5.859v11.012h25.77V90.004h-5.793V63.457h4.445l.434 7.273h11.789zm10.512 10.945v27.461h-5.93v11.012h25.34V91.14l-5.5-.43v-5.656h5.43l6.156 8.828v7.133h19.906V90.004h-6.43l-5.223-6.914c7.621-3.602 9.602-8.617 9.602-14.477 0-8.895-6.566-17.016-19.203-17.016H284.5v10.945zm13.91.207h10.172c3.738 0 5.43 2.758 5.43 5.93s-1.828 5.93-5.293 5.93H304.34zm70.887 38.266h24.562V90.004h-5.43l-17.152-38.406h-26.129v10.945h5.582l-12.289 27.461h-5.516v11.012h24.785v-9.961l-4.652-.344 1.551-4.379h17.512l1.551 4.309-4.375.414zm-1.344-25.629h-9.172l4.516-11.93zM92.496 146.328c0-16.102-11.289-25.27-27.457-25.27-16.238 0-27.391 9.168-27.391 25.27 0 16.305 11.152 25.559 27.391 25.559 4.793 0 9.254-.91 13.133-2.687l6.273 6.359 9.258-9.187-5.516-5.773c2.551-4.031 4.309-8.617 4.309-14.27zm-13.91 0c0 8.824-5.496 13.562-13.547 13.562-7.98 0-13.547-4.875-13.547-13.562 0-8.121 5.566-13.41 13.547-13.41 8.051 0 13.547 5.289 13.547 13.41zm49.641-13.617h5.93v16.305c0 7.551-3.738 10.945-9.395 10.945-5.789 0-9.531-3.328-9.531-11.082v-16.168h6v-10.945H95.684v10.945h5.707v16.168c0 15.168 8.754 23.008 23.371 23.008 14.48 0 23.375-8.254 23.238-22.871v-16.305h5.703v-10.945h-25.477zm68.894-5.93c-5.637-4.449-11.43-5.723-18.566-5.723-9.531 0-20.82 4.445-20.82 15.32 0 12.207 10.238 14.395 20.254 15.324 5.445.555 8.344 1.621 8.344 4.016 0 3.105-3.965 4.242-8.121 4.242-3.187 0-6.43-.5-8.187-1.344l-.223-5.516h-12.066v12.152c6.207 5.223 12.633 6.703 20.684 6.633 11.152-.066 21.824-4.723 21.824-15.891 0-11.633-10.535-14.324-20.203-15.305-4.93-.5-8.324-1-8.324-4.312 0-3.324 4.238-4.168 6.84-4.168 2.262 0 4.379.207 6.293.773l.207 5.223h12.066zm41.937 27.664l-.273 4.945h-14.117v-7.48h11.859v-10.875h-11.859v-7.617h13.203l.273 4.93h10.586v-16.582h-43.336v10.945h5.43v27.457h-5.43v11.016h44.266v-16.738zm55.488-27.664c-5.637-4.449-11.426-5.723-18.562-5.723-9.531 0-20.824 4.445-20.824 15.32 0 12.207 10.238 14.395 20.254 15.324 5.449.555 8.344 1.621 8.344 4.016 0 3.105-3.965 4.242-8.117 4.242-3.191 0-6.43-.5-8.187-1.344l-.227-5.516H255.16v12.152c6.207 5.223 12.637 6.703 20.684 6.633 11.152-.066 21.824-4.723 21.824-15.891 0-11.633-10.531-14.324-20.203-15.305-4.93-.5-8.324-1-8.324-4.312 0-3.324 4.238-4.168 6.844-4.168 2.258 0 4.379.207 6.289.773l.207 5.223h12.066zm54.09-5.016h-47.52v19.133h11.789l.43-7.277h4.52v26.547h-5.863v11.016h25.77v-11.016h-5.793v-26.547h4.449l.43 7.277h11.789zm4.793 10.945h5.789v27.457h-5.789v11.016h25.699v-11.016h-5.859V132.71h5.859v-10.945h-25.699zm85.496 13.754c0-16.375-11.152-25.406-27.387-25.406-16.168 0-27.461 9.238-27.461 25.406 0 16.598 11.293 25.422 27.461 25.422 16.234 0 27.387-8.824 27.387-25.422zm-13.977 0c0 8.273-5.223 13.496-13.41 13.496-7.914 0-13.48-5.223-13.48-13.496 0-8.117 5.5-13.48 13.48-13.48 8.187 0 13.41 4.949 13.41 13.48zm57.551 2.344l-20.91-27.043H443.87v11.082h5.859v27.32h-5.859v11.016h24.855v-11.016h-4.809v-4.879l-.207-10.723 20.547 26.617h11.926v-38.336h5.723v-11.082h-24.648v11.082h4.809v5.859c.141 1.898.141 4.172.434 10.102zm-429.132 67.34v10.305h26.684v-10.305zm67.488 25.199h24.562v-11.016h-5.43L122.84 191.93H96.707v10.945h5.586l-12.289 27.457h-5.516v11.016h24.785v-9.965l-4.652-.344 1.551-4.379h17.512l1.551 4.309-4.379.414zm-1.344-25.633h-9.172l4.52-11.926zm67.785 3.258l-20.91-27.043h-17.719v11.082h5.859v27.32h-5.859v11.016h24.855v-11.016h-4.809v-4.879l-.207-10.719 20.547 26.613h11.926V203.01h5.723v-11.08h-24.648v11.082h4.809v5.859c.141 1.898.141 4.172.434 10.102zm64.016-22.027c-5.637-4.449-11.426-5.723-18.562-5.723-9.531 0-20.824 4.445-20.824 15.324 0 12.203 10.238 14.391 20.254 15.324 5.449.551 8.344 1.617 8.344 4.016 0 3.102-3.965 4.238-8.117 4.238-3.191 0-6.43-.5-8.187-1.344l-.227-5.516h-12.066v12.152c6.207 5.223 12.637 6.703 20.684 6.637 11.152-.07 21.824-4.723 21.824-15.895 0-11.633-10.531-14.324-20.203-15.305-4.93-.5-8.324-1-8.324-4.309 0-3.328 4.238-4.172 6.844-4.172 2.258 0 4.379.207 6.289.773l.207 5.223h12.066zm79.086 5.93h5.223V191.93h-25.426v10.945h5.086l-2.191 6.066c-1.051 4.102-2.051 8.117-2.738 11.859l-9.187-28.098h-10.102l-8.824 28.098c-.707-3.672-1.414-7.758-2.602-11.516l-2.328-6.41h4.93V191.93h-25.406v10.945h5.289l14.324 38.473h11.309l8.395-23.648 8.754 23.648h11.445zm42.914 21.734l-.277 4.949h-14.117v-7.484h11.859v-10.875h-11.859v-7.617h13.203l.277 4.93h10.582V191.93h-43.332v10.945h5.43v27.457h-5.43v11.016h44.266V224.61zm22.098-21.734v27.457h-5.926v11.016h25.336v-9.879l-5.5-.43v-5.652h5.43l6.156 8.824v7.137h19.906v-11.016h-6.43l-5.223-6.91c7.621-3.605 9.602-8.621 9.602-14.48 0-8.895-6.566-17.012-19.199-17.012h-30.078v10.945zm13.91.207h10.172c3.738 0 5.43 2.758 5.43 5.93s-1.828 5.93-5.293 5.93H409.32zm75.746-6.137c-5.637-4.449-11.426-5.723-18.562-5.723-9.531 0-20.824 4.445-20.824 15.324 0 12.203 10.238 14.391 20.254 15.324 5.449.551 8.344 1.617 8.344 4.016 0 3.102-3.965 4.238-8.117 4.238-3.191 0-6.43-.5-8.187-1.344l-.227-5.516h-12.066v12.152c6.207 5.223 12.637 6.703 20.687 6.637 11.148-.07 21.82-4.723 21.82-15.895 0-11.633-10.531-14.324-20.203-15.305-4.93-.5-8.324-1-8.324-4.309 0-3.328 4.242-4.172 6.844-4.172 2.258 0 4.379.207 6.289.773l.207 5.223h12.066zm0 0" fill="none" stroke="rgb(0%,0%,0%)" stroke-width="1.765"/></svg>