<?xml version="1.0" encoding="UTF-8"?>
<svg xmlns="http://www.w3.org/2000/svg" xmlns:xlink="http://www.w3.org/1999/xlink" width="170.25pt" height="127.499994pt" viewBox="0 0 170.25 127.499994" version="1.2">
<defs>
<clipPath id="clip1">
  <path d="M 0 0.03125 L 169.503906 0.03125 L 169.503906 126.972656 L 0 126.972656 Z M 0 0.03125 "/>
</clipPath>
<clipPath id="clip2">
  <path d="M 75 0.03125 L 99 0.03125 L 99 36 L 75 36 Z M 75 0.03125 "/>
</clipPath>
<clipPath id="clip3">
  <path d="M 29.679688 38 L 35 38 L 35 41 L 29.679688 41 Z M 29.679688 38 "/>
</clipPath>
<clipPath id="clip4">
  <path d="M 112 45 L 139.25 45 L 139.25 73 L 112 73 Z M 112 45 "/>
</clipPath>
<clipPath id="clip5">
  <path d="M 58 89 L 114 89 L 114 118.757812 L 58 118.757812 Z M 58 89 "/>
</clipPath>
<clipPath id="clip6">
  <path d="M 50 116 L 122 116 L 122 118.757812 L 50 118.757812 Z M 50 116 "/>
</clipPath>
</defs>
<g id="surface1">
<g clip-path="url(#clip1)" clip-rule="nonzero">
<path style=" stroke:none;fill-rule:nonzero;fill:rgb(100%,100%,100%);fill-opacity:1;" d="M 0 0.03125 L 170.25 0.03125 L 170.25 135.183594 L 0 135.183594 Z M 0 0.03125 "/>
<path style=" stroke:none;fill-rule:nonzero;fill:rgb(100%,100%,100%);fill-opacity:1;" d="M 0 0.03125 L 169.503906 0.03125 L 169.503906 126.972656 L 0 126.972656 Z M 0 0.03125 "/>
<path style=" stroke:none;fill-rule:nonzero;fill:rgb(85.099792%,85.099792%,85.099792%);fill-opacity:1;" d="M 0 0.03125 L 169.503906 0.03125 L 169.503906 126.972656 L 0 126.972656 Z M 0 0.03125 "/>
</g>
<g clip-path="url(#clip2)" clip-rule="nonzero">
<path style=" stroke:none;fill-rule:nonzero;fill:rgb(30.589294%,45.098877%,87.059021%);fill-opacity:1;" d="M 98.054688 11.628906 C 98.054688 18.023438 86.582031 35.027344 86.582031 35.027344 C 86.582031 35.027344 75.105469 18.023438 75.105469 11.628906 C 75.105469 5.230469 80.242188 0.046875 86.582031 0.046875 C 92.917969 0.046875 98.054688 5.230469 98.054688 11.628906 Z M 98.054688 11.628906 "/>
</g>
<path style=" stroke:none;fill-rule:nonzero;fill:rgb(100%,100%,100%);fill-opacity:1;" d="M 92.078125 10.902344 C 92.078125 11.269531 92.042969 11.628906 91.972656 11.984375 C 91.902344 12.34375 91.796875 12.691406 91.660156 13.027344 C 91.523438 13.363281 91.351562 13.683594 91.152344 13.984375 C 90.953125 14.289062 90.722656 14.570312 90.46875 14.828125 C 90.210938 15.085938 89.933594 15.3125 89.636719 15.515625 C 89.335938 15.71875 89.019531 15.890625 88.683594 16.03125 C 88.351562 16.167969 88.007812 16.273438 87.652344 16.34375 C 87.300781 16.417969 86.941406 16.453125 86.582031 16.453125 C 86.21875 16.453125 85.863281 16.417969 85.507812 16.34375 C 85.152344 16.273438 84.808594 16.167969 84.476562 16.03125 C 84.144531 15.890625 83.824219 15.71875 83.527344 15.515625 C 83.226562 15.3125 82.949219 15.085938 82.691406 14.828125 C 82.4375 14.570312 82.210938 14.289062 82.007812 13.984375 C 81.808594 13.683594 81.640625 13.363281 81.5 13.027344 C 81.363281 12.691406 81.257812 12.34375 81.1875 11.984375 C 81.117188 11.628906 81.082031 11.269531 81.082031 10.902344 C 81.082031 10.539062 81.117188 10.179688 81.1875 9.820312 C 81.257812 9.464844 81.363281 9.117188 81.5 8.78125 C 81.640625 8.445312 81.808594 8.125 82.007812 7.820312 C 82.210938 7.519531 82.4375 7.238281 82.691406 6.980469 C 82.949219 6.722656 83.226562 6.492188 83.527344 6.289062 C 83.824219 6.085938 84.144531 5.917969 84.476562 5.777344 C 84.808594 5.636719 85.152344 5.53125 85.507812 5.460938 C 85.863281 5.390625 86.21875 5.355469 86.582031 5.355469 C 86.941406 5.355469 87.300781 5.390625 87.652344 5.460938 C 88.007812 5.53125 88.351562 5.636719 88.683594 5.777344 C 89.019531 5.917969 89.335938 6.085938 89.636719 6.289062 C 89.933594 6.492188 90.210938 6.722656 90.46875 6.980469 C 90.722656 7.238281 90.953125 7.519531 91.152344 7.820312 C 91.351562 8.125 91.523438 8.445312 91.660156 8.78125 C 91.796875 9.117188 91.902344 9.464844 91.972656 9.820312 C 92.042969 10.179688 92.078125 10.539062 92.078125 10.902344 Z M 92.078125 10.902344 "/>
<path style=" stroke:none;fill-rule:nonzero;fill:rgb(92.158508%,78.42865%,27.839661%);fill-opacity:1;" d="M 53.839844 37.230469 C 53.839844 32.976562 50.417969 29.523438 46.199219 29.523438 C 42.015625 29.523438 38.648438 32.851562 38.566406 37.074219 C 38.527344 39.003906 39.191406 40.777344 40.320312 42.148438 C 41.996094 44.1875 42.972656 46.714844 42.972656 49.363281 L 42.972656 49.695312 C 42.972656 51.492188 44.417969 52.953125 46.199219 52.953125 C 47.984375 52.953125 49.429688 51.492188 49.429688 49.695312 L 49.429688 49.363281 C 49.429688 46.761719 50.3125 44.226562 51.992188 42.253906 C 53.144531 40.902344 53.839844 39.148438 53.839844 37.230469 Z M 53.839844 37.230469 "/>
<path style=" stroke:none;fill-rule:nonzero;fill:rgb(30.589294%,45.098877%,87.059021%);fill-opacity:1;" d="M 55.070312 100.921875 C 50.863281 100.921875 47.4375 97.464844 47.4375 93.21875 L 47.4375 52.703125 C 48.605469 52.214844 49.429688 51.050781 49.429688 49.695312 L 49.429688 49.363281 C 49.429688 48.484375 49.53125 47.613281 49.730469 46.765625 L 42.652344 46.765625 C 42.863281 47.609375 42.972656 48.480469 42.972656 49.363281 L 42.972656 49.695312 C 42.972656 51.050781 43.796875 52.214844 44.964844 52.703125 L 44.964844 93.21875 C 44.964844 98.839844 49.496094 103.417969 55.070312 103.417969 L 75.105469 103.417969 L 75.105469 100.921875 Z M 55.070312 100.921875 "/>
<path style=" stroke:none;fill-rule:nonzero;fill:rgb(90.19928%,45.489502%,27.059937%);fill-opacity:1;" d="M 46.191406 26.292969 C 45.507812 26.292969 44.957031 25.734375 44.957031 25.042969 L 44.957031 22.8125 C 44.957031 22.125 45.507812 21.566406 46.191406 21.566406 C 46.875 21.566406 47.429688 22.125 47.429688 22.8125 L 47.429688 25.042969 C 47.429688 25.734375 46.875 26.292969 46.191406 26.292969 Z M 46.191406 26.292969 "/>
<path style=" stroke:none;fill-rule:nonzero;fill:rgb(90.19928%,45.489502%,27.059937%);fill-opacity:1;" d="M 51.53125 27.4375 C 51.363281 27.4375 51.191406 27.402344 51.027344 27.328125 C 50.402344 27.046875 50.125 26.308594 50.402344 25.679688 L 51.304688 23.644531 C 51.582031 23.015625 52.316406 22.730469 52.9375 23.011719 C 53.5625 23.292969 53.839844 24.03125 53.5625 24.660156 L 52.660156 26.699219 C 52.457031 27.164062 52.003906 27.4375 51.53125 27.4375 Z M 51.53125 27.4375 "/>
<path style=" stroke:none;fill-rule:nonzero;fill:rgb(90.19928%,45.489502%,27.059937%);fill-opacity:1;" d="M 55.945312 30.679688 C 55.605469 30.679688 55.265625 30.542969 55.023438 30.265625 C 54.566406 29.753906 54.609375 28.964844 55.121094 28.503906 L 56.765625 27.015625 C 57.273438 26.554688 58.058594 26.597656 58.511719 27.113281 C 58.96875 27.625 58.925781 28.414062 58.417969 28.875 L 56.769531 30.363281 C 56.535156 30.578125 56.238281 30.679688 55.945312 30.679688 Z M 55.945312 30.679688 "/>
<path style=" stroke:none;fill-rule:nonzero;fill:rgb(90.19928%,45.489502%,27.059937%);fill-opacity:1;" d="M 58.660156 35.460938 C 58.136719 35.460938 57.652344 35.121094 57.484375 34.59375 C 57.277344 33.9375 57.632812 33.234375 58.285156 33.023438 L 60.390625 32.339844 C 61.039062 32.132812 61.734375 32.492188 61.945312 33.148438 C 62.152344 33.804688 61.792969 34.507812 61.144531 34.71875 L 59.039062 35.398438 C 58.914062 35.441406 58.785156 35.460938 58.660156 35.460938 Z M 58.660156 35.460938 "/>
<path style=" stroke:none;fill-rule:nonzero;fill:rgb(90.19928%,45.489502%,27.059937%);fill-opacity:1;" d="M 61.410156 41.183594 C 61.363281 41.183594 61.320312 41.183594 61.273438 41.175781 L 59.074219 40.933594 C 58.398438 40.855469 57.90625 40.242188 57.980469 39.554688 C 58.058594 38.871094 58.667969 38.375 59.347656 38.453125 L 61.542969 38.695312 C 62.222656 38.773438 62.710938 39.386719 62.636719 40.074219 C 62.566406 40.710938 62.03125 41.183594 61.410156 41.183594 Z M 61.410156 41.183594 "/>
<g clip-path="url(#clip3)" clip-rule="nonzero">
<path style=" stroke:none;fill-rule:nonzero;fill:rgb(90.19928%,45.489502%,27.059937%);fill-opacity:1;" d="M 30.964844 40.90625 C 30.332031 40.90625 29.792969 40.417969 29.734375 39.769531 C 29.671875 39.085938 30.171875 38.476562 30.851562 38.414062 L 33.054688 38.210938 C 33.738281 38.148438 34.335938 38.65625 34.398438 39.34375 C 34.460938 40.027344 33.957031 40.636719 33.277344 40.699219 L 31.078125 40.902344 C 31.039062 40.902344 31 40.90625 30.964844 40.90625 Z M 30.964844 40.90625 "/>
</g>
<path style=" stroke:none;fill-rule:nonzero;fill:rgb(90.19928%,45.489502%,27.059937%);fill-opacity:1;" d="M 33.8125 35.234375 C 33.679688 35.234375 33.546875 35.210938 33.414062 35.167969 L 31.320312 34.445312 C 30.675781 34.222656 30.332031 33.511719 30.550781 32.859375 C 30.773438 32.207031 31.476562 31.859375 32.121094 32.082031 L 34.214844 32.804688 C 34.859375 33.027344 35.203125 33.738281 34.984375 34.390625 C 34.808594 34.90625 34.328125 35.234375 33.8125 35.234375 Z M 33.8125 35.234375 "/>
<path style=" stroke:none;fill-rule:nonzero;fill:rgb(90.19928%,45.489502%,27.059937%);fill-opacity:1;" d="M 36.617188 30.507812 C 36.3125 30.507812 36.011719 30.394531 35.773438 30.171875 L 34.15625 28.652344 C 33.65625 28.179688 33.628906 27.390625 34.09375 26.886719 C 34.558594 26.382812 35.339844 26.355469 35.839844 26.824219 L 37.457031 28.34375 C 37.957031 28.8125 37.988281 29.605469 37.519531 30.109375 C 37.277344 30.371094 36.945312 30.507812 36.617188 30.507812 Z M 36.617188 30.507812 "/>
<path style=" stroke:none;fill-rule:nonzero;fill:rgb(90.19928%,45.489502%,27.059937%);fill-opacity:1;" d="M 41.085938 27.34375 C 40.605469 27.34375 40.148438 27.058594 39.945312 26.582031 L 39.085938 24.527344 C 38.816406 23.894531 39.109375 23.160156 39.738281 22.890625 C 40.371094 22.621094 41.09375 22.917969 41.359375 23.554688 L 42.222656 25.609375 C 42.492188 26.242188 42.195312 26.976562 41.566406 27.242188 C 41.410156 27.3125 41.246094 27.34375 41.085938 27.34375 Z M 41.085938 27.34375 "/>
<path style=" stroke:none;fill-rule:nonzero;fill:rgb(92.158508%,78.42865%,27.839661%);fill-opacity:1;" d="M 116.78125 102.949219 L 103.574219 102.949219 L 103.574219 100.453125 L 116.78125 100.453125 C 120.988281 100.453125 124.414062 96.996094 124.414062 92.75 L 124.414062 70.1875 L 126.886719 70.1875 L 126.886719 92.75 C 126.886719 98.371094 122.351562 102.949219 116.78125 102.949219 Z M 116.78125 102.949219 "/>
<path style=" stroke:none;fill-rule:nonzero;fill:rgb(100%,100%,100%);fill-opacity:1;" d="M 125.648438 47.757812 C 119.515625 47.757812 114.523438 52.792969 114.523438 58.984375 C 114.523438 65.175781 119.515625 70.214844 125.648438 70.214844 C 131.785156 70.214844 136.777344 65.175781 136.777344 58.984375 C 136.777344 52.792969 131.785156 47.757812 125.648438 47.757812 Z M 125.648438 47.757812 "/>
<g clip-path="url(#clip4)" clip-rule="nonzero">
<path style=" stroke:none;fill-rule:nonzero;fill:rgb(90.19928%,45.489502%,27.059937%);fill-opacity:1;" d="M 125.648438 45.261719 C 118.152344 45.261719 112.050781 51.417969 112.050781 58.984375 C 112.050781 66.550781 118.152344 72.710938 125.648438 72.710938 C 133.148438 72.710938 139.25 66.550781 139.25 58.984375 C 139.25 51.417969 133.148438 45.261719 125.648438 45.261719 Z M 135.398438 53.578125 L 133.488281 53.578125 C 132.867188 51.917969 131.964844 50.386719 130.820312 49.046875 C 132.75 50.074219 134.34375 51.652344 135.398438 53.578125 Z M 136.777344 58.984375 C 136.777344 59.992188 136.640625 60.964844 136.394531 61.894531 L 134.1875 61.894531 C 134.367188 60.949219 134.460938 59.976562 134.460938 58.984375 C 134.460938 57.996094 134.367188 57.019531 134.1875 56.074219 L 136.394531 56.074219 C 136.640625 57.003906 136.777344 57.976562 136.777344 58.984375 Z M 130.835938 53.578125 L 126.886719 53.578125 L 126.886719 48.734375 C 128.621094 50.011719 129.960938 51.671875 130.835938 53.578125 Z M 124.414062 48.734375 L 124.414062 53.578125 L 120.464844 53.578125 C 121.335938 51.671875 122.679688 50.011719 124.414062 48.734375 Z M 124.414062 56.074219 L 124.414062 61.894531 L 119.628906 61.894531 C 119.421875 60.960938 119.308594 59.984375 119.308594 58.984375 C 119.308594 57.984375 119.421875 57.007812 119.628906 56.074219 Z M 124.414062 64.390625 L 124.414062 69.234375 C 122.679688 67.957031 121.335938 66.300781 120.464844 64.390625 Z M 126.886719 69.234375 L 126.886719 64.390625 L 130.832031 64.390625 C 129.960938 66.300781 128.621094 67.957031 126.886719 69.234375 Z M 126.886719 61.894531 L 126.886719 56.074219 L 131.671875 56.074219 C 131.878906 57.007812 131.988281 57.984375 131.988281 58.984375 C 131.988281 59.984375 131.878906 60.960938 131.671875 61.894531 Z M 120.480469 49.046875 C 119.335938 50.386719 118.429688 51.917969 117.8125 53.578125 L 115.902344 53.578125 C 116.953125 51.652344 118.550781 50.074219 120.480469 49.046875 Z M 114.523438 58.984375 C 114.523438 57.976562 114.65625 57.003906 114.90625 56.074219 L 117.113281 56.074219 C 116.933594 57.019531 116.835938 57.996094 116.835938 58.984375 C 116.835938 59.976562 116.933594 60.949219 117.113281 61.894531 L 114.90625 61.894531 C 114.65625 60.964844 114.523438 59.992188 114.523438 58.984375 Z M 115.902344 64.390625 L 117.8125 64.390625 C 118.429688 66.050781 119.335938 67.582031 120.480469 68.921875 C 118.550781 67.898438 116.953125 66.316406 115.902344 64.390625 Z M 130.820312 68.921875 C 131.964844 67.582031 132.867188 66.050781 133.488281 64.390625 L 135.398438 64.390625 C 134.34375 66.316406 132.75 67.898438 130.820312 68.921875 Z M 130.820312 68.921875 "/>
</g>
<path style=" stroke:none;fill-rule:nonzero;fill:rgb(12.939453%,19.219971%,37.249756%);fill-opacity:1;" d="M 101.308594 56.328125 L 100.125 65.71875 C 99.738281 65.402344 99.285156 65.222656 98.808594 65.222656 L 98.808594 64.320312 C 98.808594 62.980469 98.601562 61.683594 98.21875 60.464844 L 83.722656 60.464844 C 80.53125 60.464844 77.652344 59.101562 75.632812 56.917969 C 74.160156 59.015625 73.296875 61.570312 73.296875 64.320312 L 73.296875 65.222656 C 72.789062 65.222656 72.316406 65.421875 71.921875 65.769531 L 70.730469 56.328125 C 70.503906 54.519531 71.355469 52.828125 72.882812 51.585938 C 72.730469 50.84375 72.648438 50.074219 72.648438 49.289062 L 72.648438 47.078125 C 72.648438 45.65625 73.789062 44.503906 75.199219 44.503906 L 87.148438 44.503906 C 91.863281 44.503906 95.980469 47.078125 98.195312 50.914062 C 100.3125 52.179688 101.578125 54.164062 101.308594 56.328125 Z M 101.308594 56.328125 "/>
<path style=" stroke:none;fill-rule:nonzero;fill:rgb(94.898987%,71.759033%,63.529968%);fill-opacity:1;" d="M 106.617188 117.066406 L 106.617188 117.820312 L 65.480469 117.820312 L 65.480469 117.066406 C 65.480469 116.789062 65.488281 107.332031 65.5 107.054688 C 65.507812 106.796875 65.519531 106.539062 65.539062 106.289062 C 65.554688 106.050781 65.582031 105.820312 65.609375 105.589844 C 65.628906 105.386719 65.65625 105.1875 65.683594 104.988281 C 65.683594 104.933594 65.695312 104.886719 65.703125 104.835938 C 65.730469 104.644531 65.761719 104.460938 65.796875 104.273438 C 65.808594 104.195312 65.820312 104.125 65.832031 104.046875 C 65.859375 103.90625 65.890625 103.765625 65.917969 103.625 C 65.953125 103.445312 65.988281 103.273438 66.03125 103.105469 C 66.042969 103.046875 66.058594 102.988281 66.070312 102.933594 C 66.078125 102.898438 66.085938 102.867188 66.09375 102.832031 C 66.160156 102.589844 66.226562 102.339844 66.292969 102.09375 C 66.570312 101.132812 66.914062 100.203125 67.316406 99.3125 C 67.417969 99.097656 67.523438 98.875 67.628906 98.664062 C 67.730469 98.453125 67.839844 98.242188 67.953125 98.027344 C 68.0625 97.824219 68.171875 97.625 68.289062 97.429688 C 68.289062 97.417969 68.292969 97.40625 68.304688 97.402344 C 68.421875 97.199219 68.546875 97 68.667969 96.800781 C 68.769531 96.644531 68.867188 96.492188 68.964844 96.339844 C 69.394531 95.695312 69.855469 95.074219 70.355469 94.492188 C 70.496094 94.3125 70.644531 94.140625 70.800781 93.976562 C 71.296875 93.421875 71.824219 92.890625 72.378906 92.394531 C 72.570312 92.222656 72.761719 92.050781 72.964844 91.886719 C 73.160156 91.722656 73.367188 91.5625 73.570312 91.402344 C 73.777344 91.242188 73.980469 91.089844 74.191406 90.941406 C 74.402344 90.789062 74.617188 90.640625 74.835938 90.5 C 75.046875 90.363281 75.257812 90.226562 75.472656 90.097656 C 75.484375 90.09375 75.496094 90.085938 75.5 90.082031 C 75.671875 89.980469 75.835938 89.882812 76.003906 89.792969 C 76.316406 89.609375 76.632812 89.445312 76.949219 89.285156 C 77.613281 88.953125 78.304688 88.652344 79.011719 88.390625 C 80.023438 88.019531 80.875 87.367188 81.472656 86.523438 C 81.90625 85.925781 82.210938 85.25 82.371094 84.523438 C 77.132812 82.917969 73.292969 77.992188 73.292969 72.203125 L 73.292969 72.464844 C 71.859375 72.464844 70.691406 70.84375 70.691406 68.84375 C 70.691406 67.546875 71.183594 66.410156 71.917969 65.769531 C 72.316406 65.421875 72.789062 65.222656 73.292969 65.222656 L 73.292969 64.320312 C 73.292969 61.570312 74.160156 59.015625 75.632812 56.917969 C 77.648438 59.101562 80.527344 60.464844 83.722656 60.464844 L 98.21875 60.464844 C 98.601562 61.683594 98.808594 62.980469 98.808594 64.320312 L 98.808594 65.222656 C 99.285156 65.222656 99.738281 65.402344 100.121094 65.71875 C 100.890625 66.347656 101.410156 67.515625 101.410156 68.84375 C 101.410156 70.84375 100.242188 72.464844 98.808594 72.464844 L 98.808594 72.203125 C 98.808594 77.992188 94.96875 82.917969 89.734375 84.523438 C 89.894531 85.25 90.195312 85.925781 90.625 86.523438 C 91.234375 87.367188 92.082031 88.019531 93.085938 88.390625 C 93.796875 88.652344 94.484375 88.953125 95.152344 89.285156 C 95.46875 89.445312 95.785156 89.609375 96.09375 89.792969 C 96.265625 89.882812 96.425781 89.980469 96.597656 90.082031 C 96.601562 90.085938 96.613281 90.09375 96.628906 90.097656 C 96.84375 90.226562 97.054688 90.363281 97.261719 90.5 C 97.480469 90.640625 97.695312 90.789062 97.90625 90.941406 C 98.117188 91.089844 98.320312 91.242188 98.527344 91.402344 C 98.734375 91.5625 98.9375 91.722656 99.136719 91.886719 C 99.335938 92.050781 99.527344 92.226562 99.722656 92.394531 C 100.277344 92.890625 100.804688 93.421875 101.300781 93.976562 C 101.453125 94.140625 101.605469 94.3125 101.746094 94.492188 C 102.242188 95.074219 102.703125 95.695312 103.132812 96.339844 C 103.230469 96.492188 103.332031 96.644531 103.429688 96.800781 C 103.554688 97 103.675781 97.199219 103.792969 97.402344 C 103.804688 97.40625 103.808594 97.417969 103.808594 97.429688 C 103.925781 97.625 104.039062 97.824219 104.144531 98.027344 C 104.261719 98.242188 104.367188 98.453125 104.472656 98.664062 C 104.578125 98.875 104.683594 99.097656 104.78125 99.3125 C 105.183594 100.203125 105.53125 101.132812 105.804688 102.09375 C 105.839844 102.222656 105.875 102.355469 105.910156 102.484375 C 105.953125 102.632812 105.992188 102.785156 106.027344 102.933594 C 106.039062 102.984375 106.054688 103.046875 106.070312 103.105469 C 106.109375 103.273438 106.144531 103.445312 106.179688 103.625 L 106.265625 104.046875 C 106.277344 104.125 106.292969 104.195312 106.304688 104.273438 C 106.339844 104.460938 106.367188 104.644531 106.398438 104.835938 C 106.402344 104.886719 106.414062 104.933594 106.414062 104.988281 C 106.441406 105.1875 106.472656 105.386719 106.488281 105.589844 C 106.519531 105.820312 106.542969 106.050781 106.5625 106.289062 C 106.578125 106.539062 106.589844 106.800781 106.601562 107.054688 C 106.613281 107.332031 106.617188 116.789062 106.617188 117.066406 Z M 106.617188 117.066406 "/>
<path style=" stroke:none;fill-rule:nonzero;fill:rgb(85.488892%,47.44873%,36.079407%);fill-opacity:1;" d="M 90.625 86.519531 C 89.269531 87.269531 87.710938 87.703125 86.050781 87.703125 C 84.390625 87.703125 82.832031 87.269531 81.476562 86.519531 C 81.90625 85.929688 82.210938 85.25 82.371094 84.523438 C 83.535156 84.878906 84.773438 85.074219 86.050781 85.074219 C 87.332031 85.074219 88.570312 84.878906 89.734375 84.519531 C 89.886719 85.246094 90.199219 85.925781 90.625 86.519531 Z M 90.625 86.519531 "/>
<g clip-path="url(#clip5)" clip-rule="nonzero">
<path style=" stroke:none;fill-rule:nonzero;fill:rgb(16.859436%,67.059326%,66.668701%);fill-opacity:1;" d="M 112.578125 111.585938 L 102.097656 94.527344 C 101.582031 93.683594 100.847656 93.058594 100.015625 92.671875 C 99.917969 92.582031 99.824219 92.484375 99.722656 92.394531 C 99.527344 92.222656 99.335938 92.050781 99.136719 91.886719 C 98.9375 91.722656 98.734375 91.5625 98.527344 91.402344 C 98.324219 91.242188 98.117188 91.089844 97.910156 90.941406 C 97.699219 90.789062 97.480469 90.640625 97.265625 90.5 C 97.054688 90.363281 96.84375 90.226562 96.628906 90.097656 C 96.613281 90.09375 96.605469 90.085938 96.597656 90.082031 C 96.429688 89.980469 96.265625 89.878906 96.09375 89.792969 C 95.785156 89.609375 95.46875 89.441406 95.152344 89.285156 C 93.679688 92.890625 90.164062 95.429688 86.050781 95.429688 C 81.941406 95.429688 78.421875 92.890625 76.945312 89.285156 C 76.632812 89.445312 76.316406 89.609375 76.003906 89.792969 C 75.835938 89.878906 75.671875 89.980469 75.503906 90.082031 C 75.496094 90.085938 75.484375 90.09375 75.472656 90.097656 C 75.257812 90.226562 75.046875 90.363281 74.835938 90.5 C 74.617188 90.640625 74.402344 90.789062 74.191406 90.941406 C 73.980469 91.089844 73.777344 91.242188 73.570312 91.402344 C 73.367188 91.5625 73.164062 91.722656 72.964844 91.886719 C 72.765625 92.050781 72.570312 92.222656 72.378906 92.394531 C 72.277344 92.484375 72.183594 92.582031 72.085938 92.671875 C 71.253906 93.058594 70.519531 93.683594 70 94.527344 L 59.519531 111.585938 C 58.597656 113.085938 58.554688 114.976562 59.40625 116.519531 C 60.257812 118.0625 61.871094 119.019531 63.621094 119.019531 L 78.066406 119.019531 C 79.277344 119.019531 80.378906 118.566406 81.226562 117.820312 L 90.871094 117.820312 C 91.71875 118.5625 92.824219 119.019531 94.035156 119.019531 L 108.480469 119.019531 C 110.230469 119.019531 111.84375 118.0625 112.695312 116.519531 C 113.546875 114.976562 113.5 113.085938 112.578125 111.585938 Z M 112.578125 111.585938 "/>
</g>
<path style=" stroke:none;fill-rule:nonzero;fill:rgb(18.03894%,20.779419%,27.839661%);fill-opacity:1;" d="M 101.589844 55.785156 L 86.023438 59.625 L 70.519531 55.785156 L 70.519531 45.726562 L 101.589844 45.726562 Z M 101.589844 55.785156 "/>
<path style=" stroke:none;fill-rule:nonzero;fill:rgb(24.308777%,27.449036%,37.249756%);fill-opacity:1;" d="M 107.316406 46.246094 L 86.734375 39.023438 C 86.144531 38.816406 85.503906 38.8125 84.910156 39.011719 L 64.21875 46.011719 C 63.894531 46.121094 63.78125 46.445312 63.859375 46.71875 L 63.859375 57.132812 L 66.335938 57.132812 L 66.335938 47.644531 L 85.128906 52.566406 C 85.585938 52.683594 86.0625 52.6875 86.519531 52.570312 L 107.269531 47.335938 C 107.8125 47.199219 107.847656 46.433594 107.316406 46.246094 Z M 107.316406 46.246094 "/>
<path style=" stroke:none;fill-rule:nonzero;fill:rgb(92.158508%,78.42865%,27.839661%);fill-opacity:1;" d="M 67.261719 62.570312 L 62.933594 62.570312 L 62.933594 57.507812 C 62.933594 56.300781 63.902344 55.324219 65.097656 55.324219 C 66.292969 55.324219 67.261719 56.300781 67.261719 57.507812 Z M 67.261719 62.570312 "/>
<path style=" stroke:none;fill-rule:nonzero;fill:rgb(24.308777%,27.449036%,37.249756%);fill-opacity:1;" d="M 106.777344 116.820312 C 106.355469 117.03125 105.878906 117.144531 105.394531 117.144531 L 66.703125 117.144531 C 66.21875 117.144531 65.742188 117.03125 65.324219 116.820312 C 64.808594 116.5625 64.457031 115.808594 64.457031 114.960938 L 64.457031 114.152344 L 107.640625 114.152344 L 107.640625 114.960938 C 107.640625 115.808594 107.292969 116.5625 106.777344 116.820312 Z M 106.777344 116.820312 "/>
<path style=" stroke:none;fill-rule:nonzero;fill:rgb(12.939453%,19.219971%,37.249756%);fill-opacity:1;" d="M 102.007812 116.199219 L 70.09375 116.199219 C 68.890625 116.199219 67.851562 115.296875 67.773438 114.171875 L 66.394531 94.402344 C 66.300781 93.09375 67.292969 92.019531 68.609375 92.019531 L 103.492188 92.019531 C 104.804688 92.019531 105.796875 93.09375 105.707031 94.402344 L 104.328125 114.171875 C 104.25 115.296875 103.210938 116.199219 102.007812 116.199219 Z M 102.007812 116.199219 "/>
<path style=" stroke:none;fill-rule:nonzero;fill:rgb(92.158508%,78.42865%,27.839661%);fill-opacity:1;" d="M 88.882812 104.289062 C 88.882812 104.667969 88.8125 105.035156 88.667969 105.386719 C 88.523438 105.734375 88.320312 106.042969 88.054688 106.3125 C 87.789062 106.582031 87.480469 106.789062 87.132812 106.933594 C 86.789062 107.078125 86.425781 107.152344 86.050781 107.152344 C 85.675781 107.152344 85.3125 107.078125 84.964844 106.933594 C 84.617188 106.789062 84.3125 106.582031 84.046875 106.3125 C 83.78125 106.042969 83.574219 105.734375 83.429688 105.386719 C 83.289062 105.035156 83.214844 104.667969 83.214844 104.289062 C 83.214844 103.910156 83.289062 103.546875 83.429688 103.195312 C 83.574219 102.847656 83.78125 102.535156 84.046875 102.269531 C 84.3125 102 84.617188 101.792969 84.964844 101.648438 C 85.3125 101.503906 85.675781 101.429688 86.050781 101.429688 C 86.425781 101.429688 86.789062 101.503906 87.132812 101.648438 C 87.480469 101.792969 87.789062 102 88.054688 102.269531 C 88.320312 102.535156 88.523438 102.847656 88.667969 103.195312 C 88.8125 103.546875 88.882812 103.910156 88.882812 104.289062 Z M 88.882812 104.289062 "/>
<g clip-path="url(#clip6)" clip-rule="nonzero">
<path style=" stroke:none;fill-rule:nonzero;fill:rgb(90.19928%,45.489502%,27.059937%);fill-opacity:1;" d="M 120.265625 119.066406 L 51.832031 119.066406 C 51.152344 119.066406 50.597656 118.507812 50.597656 117.820312 C 50.597656 117.128906 51.152344 116.570312 51.832031 116.570312 L 120.265625 116.570312 C 120.949219 116.570312 121.503906 117.128906 121.503906 117.820312 C 121.503906 118.507812 120.949219 119.066406 120.265625 119.066406 Z M 120.265625 119.066406 "/>
</g>
</g>
</svg>
